<?xml version="1.0" standalone="no"?>
<!DOCTYPE svg PUBLIC "-//W3C//DTD SVG 20010904//EN"
 "http://www.w3.org/TR/2001/REC-SVG-20010904/DTD/svg10.dtd">
<svg version="1.0" xmlns="http://www.w3.org/2000/svg"
 width="900.000000pt" height="599.000000pt" viewBox="0 0 900.000000 599.000000"
 preserveAspectRatio="xMidYMid meet">

<g transform="translate(0.000000,599.000000) scale(0.100000,-0.100000)"
fill="#000000" stroke="none">
<path d="M4304 5824 c-13 -20 -19 -21 -40 -12 -18 8 -31 8 -49 0 -14 -7 -46
-12 -71 -12 -50 0 -98 -21 -113 -48 -6 -12 -6 -46 1 -96 9 -72 9 -80 -10 -106
-11 -15 -27 -44 -36 -64 -18 -42 -38 -46 -96 -16 -22 11 -52 20 -69 20 -19 0
-45 13 -76 39 -57 47 -107 59 -158 38 -19 -8 -38 -20 -41 -26 -4 -6 -16 -11
-27 -11 -44 0 -100 -40 -135 -98 -44 -70 -73 -96 -141 -127 -57 -26 -69 -42
-79 -105 -5 -30 -20 -57 -50 -91 -24 -27 -48 -66 -55 -88 -15 -49 -1 -95 29
-99 14 -2 22 -12 24 -30 2 -17 16 -35 41 -52 21 -14 49 -46 63 -70 14 -25 40
-61 58 -80 19 -19 39 -45 45 -57 9 -18 20 -23 49 -23 42 0 75 24 95 68 11 26
12 25 15 -21 2 -31 -2 -55 -12 -69 -9 -12 -16 -30 -16 -40 0 -10 -14 -37 -31
-61 -22 -30 -29 -50 -26 -71 2 -16 -2 -41 -9 -55 -7 -15 -12 -64 -12 -119 0
-78 4 -96 21 -119 13 -16 20 -38 19 -54 -4 -35 31 -104 63 -125 14 -9 29 -33
35 -55 6 -22 24 -49 44 -66 24 -20 35 -39 39 -68 4 -24 15 -46 28 -56 20 -15
23 -27 24 -116 2 -61 13 -149 30 -230 27 -129 27 -133 10 -183 -9 -28 -20 -99
-25 -158 -4 -59 -12 -119 -18 -134 -10 -25 -16 -27 -79 -30 l-68 -3 -21 -43
c-11 -24 -36 -56 -54 -70 -32 -25 -32 -27 -26 -84 5 -54 4 -59 -19 -74 -13 -9
-27 -24 -30 -35 -4 -10 -14 -19 -24 -19 -27 0 -51 -32 -51 -68 0 -17 -4 -33
-9 -36 -5 -4 -12 -45 -16 -93 -6 -62 -13 -95 -27 -114 -26 -34 -21 -90 8 -103
18 -8 22 -21 28 -85 4 -49 17 -101 37 -151 28 -68 37 -79 73 -98 43 -22 199
-48 217 -36 6 3 3 -5 -6 -20 -34 -52 -4 -124 63 -153 48 -20 616 -35 1182 -31
432 3 457 4 495 23 56 28 87 78 83 133 l-3 44 71 22 c91 29 149 70 169 118 8
21 18 38 23 38 15 0 51 96 55 147 3 37 11 60 30 83 35 41 35 83 2 112 -19 17
-25 31 -25 65 0 24 -4 51 -9 61 -6 9 -12 29 -16 45 -3 15 -11 27 -18 27 -14 1
-57 65 -57 85 0 7 -11 20 -25 29 -23 15 -25 21 -19 69 6 49 4 54 -25 81 -17
17 -31 37 -31 47 0 9 -14 29 -31 43 -25 22 -41 26 -89 26 -80 0 -88 9 -105
113 -3 20 -20 69 -36 108 l-30 71 27 72 c24 64 27 88 32 235 4 142 7 166 23
182 11 11 19 28 19 38 0 11 5 23 10 26 6 3 10 14 10 24 0 10 11 28 25 41 14
13 25 31 25 39 0 9 9 27 20 41 11 14 20 35 20 48 0 13 15 36 36 54 30 26 35
37 31 62 -3 23 3 40 22 65 17 23 26 47 26 75 0 22 9 56 19 75 13 24 16 44 11
70 -3 20 -6 58 -5 85 0 27 -6 58 -14 70 -7 12 -12 34 -9 49 3 16 -3 39 -16 60
-12 19 -21 40 -21 47 0 7 -11 28 -25 46 -30 39 -32 64 -6 64 14 0 21 -10 28
-37 10 -44 46 -69 84 -60 13 4 49 36 79 73 69 83 106 120 159 163 49 39 88 94
97 137 5 26 -2 41 -47 100 -44 58 -53 76 -55 117 -4 83 -39 115 -151 138 -61
13 -61 13 -83 65 -37 91 -133 164 -213 164 -49 0 -129 -41 -161 -83 -22 -28
-37 -36 -107 -52 -87 -19 -98 -16 -99 29 0 11 -12 33 -27 48 -24 25 -27 37
-28 92 -1 38 -7 74 -16 87 -8 13 -21 43 -27 67 -17 57 -46 74 -122 73 -34 0
-60 4 -60 10 0 20 -44 27 -79 13 -24 -10 -38 -11 -45 -4 -13 13 -53 13 -61 -1
-5 -7 -13 -4 -26 7 -15 14 -21 14 -34 4 -11 -9 -22 -10 -42 -2 -16 5 -52 10
-81 10 -44 0 -56 -4 -68 -24z m299 -69 c-1 -22 -3 -51 -5 -64 -3 -23 4 -27 73
-51 120 -41 154 -71 166 -146 3 -22 14 -51 24 -66 11 -14 19 -36 19 -47 0 -23
-77 -104 -91 -95 -10 6 -71 96 -67 99 2 1 22 12 45 24 23 11 44 25 48 31 8 13
8 13 -53 -10 -62 -24 -134 -26 -152 -5 -17 21 -5 62 30 96 40 41 76 38 130 -8
l44 -38 -19 34 c-25 42 -70 71 -113 71 -25 0 -42 -10 -77 -45 -50 -50 -53 -64
-25 -119 22 -44 19 -53 -18 -67 -19 -8 -38 -7 -64 2 -42 13 -47 29 -26 85 10
28 9 39 -7 73 -22 50 -53 71 -103 71 -38 0 -98 -33 -131 -73 -21 -26 0 -20 43
13 23 17 52 30 68 30 34 0 78 -39 78 -70 0 -26 -43 -70 -69 -70 -10 0 -48 9
-83 20 -73 23 -78 23 -78 10 0 -5 8 -10 18 -10 9 0 31 -9 47 -20 17 -11 44
-20 60 -20 l30 0 -32 -26 c-18 -14 -33 -32 -33 -39 0 -7 -6 -20 -13 -27 -27
-26 -40 -59 -28 -71 12 -12 15 -57 4 -57 -3 0 -15 7 -25 17 -10 9 -18 11 -18
6 0 -6 7 -16 15 -23 8 -6 15 -34 17 -63 3 -50 4 -51 45 -64 46 -16 58 -34 42
-66 -12 -21 -12 -21 -35 8 -12 16 -38 33 -56 39 -32 11 -33 13 -33 68 0 31 -3
60 -7 64 -14 13 -8 41 12 59 31 28 26 69 -12 100 -34 28 -57 61 -58 82 0 6 11
25 25 41 18 22 25 42 25 74 0 30 6 50 18 61 27 25 123 66 170 73 24 4 46 13
49 20 3 8 -4 32 -15 55 -24 47 -20 69 13 69 43 0 56 -47 30 -112 -6 -15 -2
-18 25 -18 30 0 32 2 24 28 -4 15 -8 43 -8 62 -1 29 3 36 22 38 23 4 24 2 20
-57 -2 -46 1 -62 11 -66 22 -9 34 10 22 33 -24 44 -10 105 23 100 18 -3 21 -9
19 -43z m101 36 c9 -14 -48 -116 -64 -116 -22 0 -18 79 5 105 19 21 50 27 59
11z m-352 -18 c23 -28 28 -51 17 -81 l-11 -27 -24 30 c-31 39 -38 63 -24 80
16 19 24 19 42 -2z m477 -4 c49 -17 40 -59 -21 -90 -39 -20 -43 -39 -7 -39 11
0 31 -11 44 -25 32 -35 40 -16 10 25 -26 36 -25 50 5 50 13 0 22 -9 26 -27 4
-16 13 -37 20 -48 20 -29 17 -50 -12 -84 -24 -29 -24 -31 -6 -31 11 0 34 -16
51 -35 33 -38 39 -76 19 -120 -10 -21 -9 -27 7 -39 14 -10 17 -21 12 -51 -4
-21 -2 -44 3 -50 5 -6 6 -30 3 -53 -4 -33 -9 -42 -21 -37 -11 4 -13 0 -8 -18
8 -34 -5 -42 -25 -16 -16 21 -16 20 -11 -29 5 -54 -4 -65 -29 -36 -14 17 -36
72 -46 110 -6 26 13 40 32 24 12 -10 15 -9 15 3 0 9 -4 19 -10 22 -17 11 -11
54 15 103 33 63 32 89 -10 147 -32 45 -34 54 -29 100 7 59 -6 77 -73 94 -53
14 -72 44 -47 72 9 10 28 19 41 19 15 0 23 5 21 13 -9 24 -38 18 -68 -14 -16
-18 -33 -30 -37 -26 -15 15 13 63 47 79 41 21 47 21 89 7z m-565 -14 c26 -17
63 -91 52 -103 -4 -4 -22 10 -39 31 -38 44 -57 50 -26 7 29 -39 16 -51 -19
-17 -26 25 -29 26 -66 13 -34 -12 -37 -15 -20 -24 16 -9 16 -12 4 -27 -13 -15
-12 -17 10 -13 19 2 26 10 28 31 3 23 6 26 18 16 24 -20 16 -50 -26 -95 -35
-38 -40 -50 -40 -91 -1 -27 -7 -59 -15 -73 -20 -35 -18 -84 5 -130 25 -48 25
-69 3 -77 -10 -4 -31 -17 -46 -30 -49 -40 -92 -25 -61 21 15 24 15 27 -6 61
-16 26 -20 43 -15 66 10 45 37 34 51 -20 11 -47 30 -64 40 -37 10 26 -5 66
-36 94 -37 34 -44 66 -26 122 17 58 48 63 56 10 l5 -34 13 27 c16 36 15 57 -3
81 -19 26 -19 45 2 68 15 17 15 18 -5 18 -18 0 -22 6 -22 35 0 40 20 55 73 55
19 0 40 7 47 15 16 19 35 19 64 0z m-566 -247 c7 -7 12 -22 12 -34 0 -12 5
-24 11 -26 14 -5 29 -85 22 -121 -3 -15 -14 -32 -25 -38 -18 -10 -19 -12 -3
-29 21 -23 11 -43 -18 -34 -21 6 -21 6 -5 -12 24 -27 40 -73 33 -95 -8 -23
-38 -25 -55 -4 -7 8 -20 15 -28 15 -11 0 -4 -12 21 -38 41 -42 48 -82 21 -120
-20 -29 -38 -28 -30 2 8 34 -2 56 -28 56 -27 0 -66 27 -66 45 0 9 10 13 27 12
22 -2 29 3 31 20 3 18 -4 24 -37 34 -45 13 -54 29 -17 29 28 0 72 33 81 60 16
49 -40 151 -82 150 -13 -1 -11 -5 9 -16 34 -18 48 -43 48 -88 0 -37 -19 -62
-57 -77 -34 -13 -49 0 -23 18 12 8 26 27 31 41 13 33 -3 49 -72 72 -65 21 -90
53 -71 94 13 28 49 35 70 14 9 -9 12 -8 12 5 0 9 -8 20 -17 26 -28 15 -7 25
26 11 26 -10 34 -9 68 14 40 28 91 34 111 14z m1745 -19 c39 -17 51 -46 32
-75 -20 -30 -3 -31 26 -1 l22 22 -6 -23 c-4 -19 -2 -22 14 -17 16 5 19 1 19
-29 0 -49 -22 -68 -71 -60 -38 6 -39 6 -39 -22 0 -16 -4 -35 -9 -43 -7 -11
-11 -10 -20 5 -10 18 -10 18 -11 -3 0 -17 -9 -25 -37 -32 -58 -16 -83 -38 -83
-72 0 -34 -22 -48 -46 -28 -21 18 -13 55 26 113 22 32 29 52 24 64 -6 15 -8
14 -11 -5 -8 -44 -44 -15 -40 32 1 16 -4 30 -11 33 -10 3 -13 -4 -12 -24 5
-78 -17 -114 -69 -114 -42 0 -61 -9 -61 -30 0 -27 -13 -31 -38 -14 -28 19 -29
54 -2 54 10 0 24 8 29 19 6 10 30 23 55 30 46 11 67 33 65 68 0 15 -2 14 -9
-4 -6 -15 -18 -23 -33 -23 -13 0 -42 -14 -65 -31 -44 -32 -76 -33 -65 -2 9 26
52 71 91 95 32 19 63 20 125 2 13 -4 17 0 17 18 0 74 115 132 193 97z m-1593
-57 l25 -17 -45 -3 c-33 -3 -47 1 -57 14 -28 38 23 42 77 6z m101 -21 c37 -38
38 -57 2 -34 -30 18 -53 42 -53 55 0 16 22 7 51 -21z m-53 -40 c56 -29 94 -68
90 -93 -5 -36 -26 -32 -46 9 -22 42 -59 80 -68 70 -4 -4 7 -22 25 -42 54 -62
53 -115 -3 -125 l-27 -5 26 -34 c27 -38 32 -70 13 -89 -21 -21 -38 -13 -38 17
0 24 -5 29 -31 35 -17 3 -44 20 -60 37 -24 25 -29 38 -24 60 4 15 1 37 -5 49
-20 37 -2 34 20 -2 18 -31 27 -36 72 -42 57 -8 79 3 58 29 -7 9 -29 15 -54 15
-61 0 -87 22 -82 69 1 21 6 43 10 50 11 17 83 13 124 -8z m502 -31 c5 -43 7
-45 55 -62 59 -21 79 -22 105 -6 15 10 22 10 32 0 33 -33 123 12 111 57 -7 28
23 29 32 0 10 -32 -15 -80 -49 -94 -24 -11 -38 -10 -75 1 -56 16 -67 10 -18
-11 56 -23 92 -19 130 15 40 35 47 37 47 12 0 -22 -36 -57 -68 -67 -35 -10
-98 4 -138 31 -48 33 -54 25 -10 -13 65 -58 170 -55 223 5 27 31 34 34 47 23
9 -8 16 -22 16 -32 0 -21 -16 -26 -24 -6 -3 8 -12 2 -26 -16 -31 -38 -71 -57
-125 -57 -59 0 -113 25 -134 62 -19 33 -27 35 -35 10 -17 -52 -196 -128 -196
-83 0 5 15 13 33 17 l32 7 -49 14 c-26 8 -45 17 -42 20 3 4 34 5 69 4 68 -2
141 19 151 45 7 18 1 18 -31 -3 -18 -12 -47 -18 -91 -18 -55 0 -66 3 -83 24
-10 13 -19 31 -19 40 0 11 9 7 31 -16 26 -29 36 -33 83 -33 54 0 94 19 82 38
-4 6 -24 16 -45 22 -35 9 -40 15 -50 56 -6 25 -9 50 -5 55 13 21 29 1 34 -41z
m268 -3 c3 -29 -2 -39 -22 -53 -21 -13 -29 -14 -41 -4 -14 11 -13 14 7 24 16
8 24 22 26 44 4 44 26 36 30 -11z m-1254 -3 c17 -14 47 -35 66 -48 19 -12 36
-28 38 -36 3 -18 -53 -50 -105 -60 l-38 -8 38 -1 c45 -1 97 -26 97 -46 0 -7 7
-21 15 -29 11 -11 13 -21 7 -33 -20 -39 -23 -91 -6 -132 15 -38 15 -43 0 -66
-9 -13 -16 -44 -16 -69 0 -38 -3 -45 -22 -48 -12 -2 -33 -18 -45 -37 -13 -19
-23 -28 -23 -20 0 8 -10 2 -21 -13 -25 -34 -69 -39 -69 -8 0 39 22 70 49 70
36 0 74 28 68 49 -2 10 2 26 9 36 21 28 17 43 -20 78 -18 18 -43 49 -56 71
-22 37 -23 38 -2 27 11 -6 31 -11 43 -11 25 0 69 36 69 57 0 17 -16 17 -23 -1
-7 -17 -37 -25 -62 -15 -11 4 -14 8 -7 8 6 1 12 6 12 11 0 20 -86 10 -134 -15
-62 -33 -79 -31 -38 4 23 20 32 36 32 58 0 36 15 50 58 59 18 4 32 10 32 14 0
10 -73 60 -88 60 -38 0 -70 -81 -37 -94 9 -3 15 -18 15 -36 0 -24 -7 -35 -34
-51 -23 -13 -37 -31 -41 -50 -13 -59 -85 -61 -85 -4 0 27 45 85 66 85 8 0 14
9 14 19 0 11 7 26 15 35 8 8 15 30 15 49 0 43 40 81 101 97 28 8 46 20 57 41
9 16 19 29 21 29 2 0 17 -12 35 -26z m930 -38 c3 -14 19 -30 36 -38 35 -15 39
-28 10 -28 -50 0 -103 51 -85 80 11 18 33 10 39 -14z m1269 2 c12 -6 51 -21
87 -33 86 -30 101 -51 109 -158 1 -4 19 -26 40 -50 45 -48 54 -81 31 -117 -7
-12 -15 -8 -43 23 -23 25 -43 37 -61 37 -19 0 -26 5 -26 20 0 11 -7 23 -15 26
-8 4 -15 11 -15 16 0 6 12 2 26 -7 27 -17 27 -17 21 5 -3 13 -1 33 5 44 21 38
3 116 -27 116 -13 0 -105 -114 -105 -131 0 -4 16 -16 35 -28 27 -16 35 -27 35
-50 0 -26 4 -30 40 -36 48 -8 100 -48 100 -77 0 -18 -5 -16 -40 16 -39 35 -60
45 -60 28 0 -5 9 -17 21 -28 31 -28 43 -54 25 -54 -8 0 -24 16 -36 36 -27 42
-38 39 -16 -5 17 -32 22 -81 8 -81 -4 0 -24 21 -43 48 -46 60 -52 72 -41 72 5
0 22 -18 36 -41 15 -22 29 -39 32 -37 10 10 -23 79 -53 112 -32 34 -35 35 -90
32 -32 -3 -70 -7 -85 -11 -27 -7 -28 -6 -26 32 0 22 -2 45 -6 51 -4 7 -4 22
-1 33 7 20 12 21 81 16 41 -3 74 -2 74 3 0 5 -15 18 -33 29 -25 15 -43 19 -69
14 -36 -5 -37 -4 -43 30 -7 38 -1 57 19 57 7 0 22 14 34 30 24 32 41 37 75 18z
m-1632 -115 c-9 -19 -9 -33 0 -58 13 -34 7 -65 -11 -65 -5 0 -10 8 -10 18 0
10 -13 33 -28 52 l-29 34 31 16 c20 9 32 24 34 40 4 22 5 22 14 6 7 -13 7 -26
-1 -43z m1212 -51 c-15 -31 -23 -37 -47 -35 -35 3 -66 -13 -66 -32 0 -25 -29
-17 -36 10 -9 37 40 93 82 94 18 1 42 10 55 20 24 19 24 19 27 0 2 -11 -5 -36
-15 -57z m255 50 c2 -16 -3 -25 -21 -31 -30 -11 -67 -57 -67 -82 0 -30 18 -31
32 -2 7 16 23 29 36 31 26 4 25 5 11 -56 -16 -62 -22 -70 -85 -88 -64 -18 -74
-31 -45 -53 12 -9 19 -20 15 -24 -14 -13 -44 -7 -65 14 -22 22 -20 64 7 107
14 21 16 21 40 6 18 -13 32 -15 55 -8 37 11 39 28 4 32 -17 2 -33 15 -46 35
-30 51 -25 69 26 91 25 10 50 27 56 38 13 25 43 19 47 -10z m-2153 7 c10 -15
2 -19 -23 -12 -12 3 -19 9 -16 14 7 12 31 11 39 -2z m1532 -61 c13 -50 4 -75
-32 -84 -14 -3 -34 -17 -45 -31 -22 -28 -40 -23 -40 10 0 14 11 28 30 39 17 9
30 23 30 31 0 8 7 20 15 27 8 7 15 21 15 31 0 34 16 20 27 -23z m922 -6 c-16
-25 -63 -47 -79 -37 -8 5 1 21 26 46 32 33 40 37 52 25 11 -11 12 -17 1 -34z
m-1608 -36 l2 -31 6 33 c8 43 27 37 23 -8 -9 -106 -44 -131 -103 -72 -20 21
-38 44 -39 52 -5 34 1 50 19 50 10 0 29 9 42 20 22 17 25 18 37 3 6 -9 13 -31
13 -47z m884 -18 c-5 -42 -14 -70 -28 -85 -11 -13 -18 -25 -15 -28 3 -3 11 1
18 10 37 44 36 -28 -1 -88 -12 -21 -18 -48 -18 -77 2 -44 2 -44 8 -10 7 42 41
100 57 100 30 0 17 -112 -17 -143 -18 -17 -27 -77 -11 -77 4 1 16 15 27 32 45
71 63 21 19 -53 -17 -28 -21 -43 -15 -70 l7 -34 22 43 c25 46 42 54 42 19 0
-29 -57 -120 -70 -112 -6 3 -10 22 -10 42 0 24 -8 45 -22 60 -14 15 -24 44
-30 83 -4 33 -17 79 -29 102 -18 36 -20 47 -10 78 6 21 11 49 11 64 0 15 6 37
14 49 7 12 16 41 20 64 6 41 25 93 34 93 2 0 1 -28 -3 -62z m-468 23 c37 -10
35 -33 -4 -51 -37 -17 -42 -30 -13 -30 11 0 27 11 36 25 16 24 44 34 44 16 0
-23 -49 -58 -91 -65 -41 -7 -46 -5 -71 24 -39 42 -36 66 10 88 23 12 41 15 49
10 6 -5 24 -13 40 -17z m-773 4 c3 -8 12 -15 20 -15 16 0 106 -82 106 -97 0
-5 -7 -19 -16 -32 l-17 -24 -17 23 c-10 13 -37 32 -61 44 -37 18 -44 26 -47
54 -5 53 17 86 32 47z m718 -132 c61 -9 85 3 124 62 51 76 57 74 68 -18 7 -54
6 -59 -23 -87 -21 -22 -39 -30 -63 -30 -30 1 -31 2 -15 14 23 18 22 21 -12 23
-21 2 -28 -2 -27 -15 1 -13 -7 -17 -34 -17 -28 0 -34 4 -32 17 2 15 -1 16 -23
8 -15 -6 -31 -8 -36 -4 -5 3 -9 3 -9 -1 0 -3 10 -10 23 -15 19 -7 16 -9 -18
-9 -46 -1 -57 5 -75 38 -11 22 -7 122 7 145 3 4 29 -17 57 -48 40 -44 59 -58
88 -63z m726 91 c12 -8 22 -19 22 -25 0 -17 -65 -49 -101 -49 -41 0 -63 -19
-53 -45 11 -27 -15 -14 -34 18 -17 27 -17 28 23 64 57 52 104 64 143 37z
m-1253 -34 c8 -16 15 -44 15 -62 l-1 -33 -29 35 c-28 33 -38 69 -23 83 12 13
23 7 38 -23z m-645 15 c0 -16 -88 -115 -102 -115 -9 0 -26 -12 -37 -27 -17
-24 -20 -25 -21 -9 0 11 7 28 17 38 24 26 9 34 -17 8 -12 -12 -24 -19 -28 -16
-12 13 36 61 73 74 21 7 50 21 64 32 24 18 51 26 51 15z m275 -57 c12 -2 21
-13 23 -25 2 -13 16 -31 31 -42 22 -16 28 -28 30 -65 2 -39 -2 -47 -24 -62
l-27 -17 25 -13 c54 -29 39 -116 -21 -122 -37 -4 -37 -4 -15 42 l16 35 -46 50
c-35 37 -47 58 -47 81 0 17 5 30 13 30 18 -1 67 -47 67 -65 0 -24 17 -17 24
10 5 19 -1 35 -25 65 -17 21 -37 41 -44 44 -15 6 -56 82 -48 90 4 3 16 -2 27
-13 12 -10 30 -21 41 -23z m1303 -1 c12 -11 22 -29 22 -39 0 -30 -31 -98 -46
-98 -7 0 -25 -16 -40 -35 -15 -19 -35 -35 -46 -35 -18 0 -19 2 -7 16 11 13 9
23 -11 59 -25 46 -21 73 6 39 14 -18 15 -17 8 16 -6 33 -5 34 10 15 15 -19 15
-19 16 10 1 46 20 9 20 -38 0 -23 4 -36 10 -32 13 8 13 61 0 86 -9 16 -7 19
12 19 22 1 22 1 4 15 -10 7 -15 19 -11 24 7 13 20 7 53 -22z m-1138 -2 c13
-14 29 -25 36 -25 7 0 17 -7 22 -16 5 -9 24 -19 43 -23 44 -9 60 -47 35 -85
-22 -35 -45 -33 -53 4 -6 34 -28 50 -67 50 -20 0 -29 8 -40 33 l-14 32 -1 -28
c-2 -49 24 -83 75 -101 57 -19 84 -42 84 -71 0 -27 -18 -45 -46 -45 -17 0 -20
5 -17 24 4 20 0 25 -26 31 -51 11 -91 51 -91 91 0 19 -5 43 -12 54 -10 15 -9
22 5 38 9 10 17 25 17 34 0 35 19 36 50 3z m1800 -36 c-11 -24 -20 -52 -20
-62 0 -10 -11 -22 -25 -27 -17 -7 -25 -17 -25 -34 0 -33 35 -56 82 -56 32 0
38 -3 38 -20 0 -12 7 -34 15 -51 15 -28 15 -30 -9 -40 -33 -16 -55 -5 -68 31
-6 20 -24 38 -49 50 -45 23 -51 39 -47 135 3 68 4 70 28 68 16 -2 38 8 60 26
19 16 36 28 38 27 1 -2 -7 -23 -18 -47z m-2172 -18 c45 -65 45 -82 3 -95 -19
-5 -48 -22 -65 -38 -17 -15 -36 -28 -42 -28 -7 0 -20 -3 -30 -7 -11 -4 -15 -2
-12 7 2 8 -4 22 -14 32 -10 10 -18 24 -18 31 0 7 7 4 15 -7 18 -24 30 -15 16
12 -15 28 -14 42 3 42 15 0 25 -20 27 -53 1 -20 2 -20 8 3 7 24 8 24 15 4 l7
-22 42 22 c52 28 60 59 24 90 -14 12 -28 31 -32 43 -10 37 16 19 53 -36z m687
29 c10 -11 24 -20 31 -20 7 0 16 9 19 20 10 32 45 26 46 -7 0 -16 4 -37 8 -47
7 -19 8 -19 13 2 8 28 28 29 28 0 0 -20 1 -21 20 -3 19 17 20 17 20 -1 0 -26
-11 -40 -37 -48 -12 -4 -26 -20 -32 -36 -16 -47 -47 -40 -62 13 -6 23 -28 60
-50 84 -38 41 -48 63 -31 63 5 0 17 -9 27 -20z m1516 -54 c-28 -51 -37 -77
-30 -82 7 -4 20 4 30 17 17 22 25 16 20 -15 -1 -5 5 -6 14 -3 9 4 15 1 15 -8
0 -21 13 -19 28 5 7 11 17 20 22 20 17 0 11 -25 -10 -38 -11 -7 -20 -19 -20
-27 0 -21 10 -19 37 7 13 12 26 18 30 14 5 -4 -4 -18 -19 -31 -16 -13 -28 -29
-28 -35 0 -21 -21 -9 -41 24 -15 26 -28 35 -58 40 -54 8 -70 30 -44 59 12 12
28 38 38 57 17 34 44 70 52 70 3 0 -14 -33 -36 -74z m-2312 25 c-35 -30 -49
-25 -15 5 15 14 31 23 34 20 2 -3 -6 -14 -19 -25z m1919 -3 c11 -38 -4 -62
-44 -72 -17 -5 -24 -13 -24 -31 0 -18 -5 -25 -19 -25 -55 0 -30 113 32 144 43
21 45 21 55 -16z m232 -17 c0 -49 -34 -92 -90 -115 -42 -16 -52 -40 -27 -65
10 -10 7 -12 -12 -9 -16 2 -28 12 -34 32 -9 26 -5 32 44 82 29 29 50 57 46 60
-7 7 50 54 65 54 4 0 8 -18 8 -39z m-1460 -33 c0 -26 18 -22 23 5 2 12 5 -8 6
-45 0 -37 -3 -70 -9 -73 -5 -3 -10 -19 -10 -36 0 -16 -9 -38 -20 -49 -11 -11
-20 -27 -20 -35 0 -8 -4 -15 -10 -15 -5 0 -10 16 -10 35 0 20 -7 50 -16 67
-12 23 -13 33 -4 42 9 8 18 4 36 -19 l24 -30 0 31 c0 17 -7 37 -15 44 -8 7
-15 29 -15 49 0 20 -5 42 -11 48 -7 7 -9 19 -5 28 5 15 9 14 31 -7 14 -12 25
-31 25 -40z m-664 26 c-19 -13 -46 -19 -46 -9 0 8 55 34 60 28 3 -2 -4 -11
-14 -19z m-86 -3 c-14 -27 -36 -40 -27 -17 4 10 7 22 7 27 0 5 7 9 15 9 12 0
14 -4 5 -19z m148 -27 c-10 -10 -28 6 -28 24 0 15 1 15 17 -1 9 -9 14 -19 11
-23z m2300 -4 c3 -8 -5 -6 -21 6 -15 10 -27 23 -27 28 0 12 43 -18 48 -34z
m-2340 -9 c3 -8 -1 -12 -9 -9 -7 2 -15 10 -17 17 -3 8 1 12 9 9 7 -2 15 -10
17 -17z m1425 -58 c-5 -2 -7 -18 -5 -37 3 -27 -1 -37 -23 -55 -15 -11 -41 -21
-56 -21 -26 0 -28 2 -17 19 9 15 9 28 1 55 -12 40 -9 44 20 19 19 -17 20 -17
15 10 -6 31 -1 34 17 10 12 -16 14 -13 21 21 l7 39 15 -28 c8 -16 11 -30 5
-32z m-493 22 c0 -18 17 -20 23 -2 2 6 8 -1 12 -16 7 -25 8 -26 20 -10 18 25
24 15 31 -49 4 -45 3 -56 -11 -62 -25 -9 -53 11 -70 50 -8 19 -21 37 -30 40
-15 6 -21 45 -8 57 12 13 33 7 33 -8z m978 2 c15 -17 -8 -52 -49 -72 -16 -9
-29 -23 -29 -33 0 -9 -4 -23 -9 -31 -8 -12 -12 -12 -25 -2 -24 20 -20 58 9 77
14 9 25 25 25 35 0 31 59 50 78 26z m-1834 -26 c-17 -5 -50 -23 -73 -41 -54
-44 -63 -33 -11 14 32 29 48 36 78 35 l37 -1 -31 -7z m966 -12 c-7 -11 -14
-19 -16 -16 -7 7 7 37 17 37 6 0 5 -9 -1 -21z m45 -16 c9 21 30 23 21 2 -8
-21 4 -19 32 8 l25 22 -17 -33 c-19 -37 -15 -62 9 -62 23 0 18 -14 -11 -27
-21 -10 -33 -9 -60 2 -31 13 -34 17 -34 58 0 50 12 70 21 35 5 -20 7 -21 14
-5z m162 5 l23 -21 0 21 c0 36 18 25 32 -19 11 -39 10 -43 -11 -60 -25 -21
-86 -26 -96 -8 -4 5 0 18 9 28 20 22 20 35 1 51 -8 7 -15 16 -15 21 0 17 34 9
57 -13z m-842 -18 c10 -11 26 -20 36 -20 18 0 59 -68 59 -100 0 -33 -29 -52
-68 -45 l-35 6 37 -34 c20 -19 36 -44 36 -55 0 -25 -35 -52 -67 -52 -30 0 -29
-6 8 -39 38 -35 33 -65 -16 -88 l-33 -16 21 -29 c20 -27 20 -31 6 -56 -8 -15
-25 -28 -37 -30 -29 -4 -28 -20 3 -34 30 -13 34 -52 8 -80 -24 -27 -32 -22
-26 17 5 34 4 36 -35 53 -46 19 -67 49 -57 81 9 28 29 27 43 -4 15 -32 40 -32
48 1 5 20 0 32 -25 58 -49 50 -38 106 15 71 58 -38 60 23 2 74 l-42 37 23 23
23 23 22 -21 c25 -23 41 -27 52 -10 4 6 -12 28 -35 49 -46 42 -50 59 -21 85
17 15 24 16 46 7 33 -16 44 -15 44 2 0 8 -15 23 -34 34 -26 15 -37 30 -41 56
-11 55 8 72 40 36z m374 -19 c8 -14 5 -26 -17 -54 -32 -43 -40 -45 -48 -13 -4
17 1 34 17 55 26 36 35 38 48 12z m1301 -9 c0 -10 -7 -27 -15 -38 -31 -40 -6
-109 28 -75 20 20 27 12 27 -33 0 -28 6 -51 16 -61 28 -28 8 -27 -25 1 -29 24
-31 28 -16 44 22 24 19 29 -17 28 -63 -2 -89 81 -42 133 22 24 44 24 44 1z
m-1832 -32 c10 -17 10 -20 -3 -20 -25 0 -17 -26 18 -57 41 -36 50 -58 35 -86
-14 -28 -27 -37 -58 -37 -25 -1 -25 -1 8 -28 37 -31 41 -61 12 -87 -16 -14
-24 -15 -51 -6 -18 6 -34 9 -36 7 -2 -2 12 -19 33 -38 43 -41 41 -69 -7 -93
-26 -14 -28 -18 -18 -37 9 -17 7 -24 -10 -41 -25 -25 -37 -17 -19 13 12 20 10
24 -25 54 -29 24 -38 39 -35 56 5 36 27 36 39 1 12 -34 29 -39 49 -16 13 15
-3 53 -47 108 -28 35 -31 77 -5 77 10 0 28 -13 40 -30 24 -32 52 -40 52 -14 0
8 -13 32 -29 52 -55 70 -48 116 11 67 28 -24 32 -25 47 -10 15 14 12 19 -27
55 -46 43 -54 78 -27 117 17 25 34 22 53 -7z m1342 1 c12 -31 6 -56 -11 -45
-14 8 -30 54 -23 65 10 16 21 9 34 -20z m328 7 c20 -20 14 -35 -23 -57 -36
-21 -51 -60 -17 -46 9 4 31 11 47 15 17 5 41 12 54 16 21 6 23 5 16 -17 -4
-13 -8 -24 -9 -25 -61 -35 -92 -78 -80 -109 9 -22 23 -18 34 10 5 14 21 30 34
35 13 5 27 14 31 19 3 6 13 11 21 11 25 0 15 -35 -21 -70 -44 -43 -49 -90 -10
-90 14 0 25 6 25 14 0 45 80 88 94 50 8 -20 1 -30 -41 -67 -18 -16 -33 -38
-33 -48 0 -10 -4 -19 -10 -19 -5 0 -10 7 -10 15 0 10 -10 15 -30 15 -26 0 -32
6 -51 50 -12 28 -25 50 -30 50 -19 0 -49 41 -49 68 0 15 -9 41 -20 57 -29 43
-26 89 6 114 30 24 54 27 72 9z m-1348 -33 c0 -13 9 -39 19 -56 20 -32 20 -33
0 -57 -10 -14 -19 -39 -19 -57 0 -17 -7 -46 -16 -63 -8 -18 -13 -40 -10 -49 3
-10 -1 -40 -9 -67 -11 -36 -12 -52 -4 -62 14 -17 4 -48 -12 -39 -6 4 -9 15 -6
25 2 9 -4 22 -14 29 -18 11 -18 13 -3 36 15 23 14 26 -5 54 -12 16 -21 34 -21
39 0 12 24 22 51 22 25 0 24 4 -12 55 -31 44 -34 75 -5 75 7 0 16 -9 19 -20 3
-11 10 -20 16 -20 14 0 14 27 1 35 -13 8 -13 101 0 126 15 27 30 24 30 -6z
m301 -41 c-9 -21 -67 -54 -93 -54 -24 0 2 47 42 75 37 27 46 30 54 18 5 -9 4
-25 -3 -39z m627 28 c4 -25 -13 -52 -33 -52 -8 0 -11 13 -10 38 3 46 2 44 23
40 9 -2 18 -14 20 -26z m-822 -36 c-3 -14 -11 -26 -16 -26 -11 0 -14 53 -3 64
13 12 26 -13 19 -38z m342 -2 c2 -13 -12 -34 -43 -61 -25 -23 -45 -49 -45 -58
0 -25 -34 -14 -38 12 -4 28 31 97 60 118 30 21 62 16 66 -11z m126 -10 c11
-28 -21 -84 -57 -99 -43 -18 -61 -39 -54 -65 6 -23 3 -24 -24 -10 -10 6 -19
19 -19 29 0 24 56 130 77 147 25 18 70 18 77 -2z m144 -26 c16 -24 39 -52 51
-62 27 -25 29 -81 2 -95 -23 -13 -33 -4 -21 20 15 26 4 44 -41 63 -37 17 -58
43 -73 94 -7 19 -4 22 23 22 24 0 36 -8 59 -42z m124 10 c22 -18 52 -43 65
-56 24 -22 24 -24 7 -43 -23 -25 -32 -24 -40 6 -4 17 -20 31 -49 44 -43 19
-71 53 -60 71 11 18 36 11 77 -22z m212 11 c17 -14 26 -29 24 -43 -4 -28 -44
-34 -53 -8 -3 11 -12 23 -20 26 -8 3 -15 15 -15 26 0 27 29 26 64 -1z m-64
-29 c11 -11 20 -28 20 -37 0 -20 -28 -53 -47 -53 -16 0 -16 5 0 31 10 18 9 23
-10 36 -13 9 -23 22 -23 29 0 21 37 17 60 -6z m-830 -28 c0 -10 -11 -25 -25
-32 -14 -7 -25 -17 -25 -22 0 -4 -4 -8 -10 -8 -16 0 -12 42 7 62 21 24 53 24
53 0z m-92 -18 c1 -10 -2 -26 -8 -34 -15 -23 -34 3 -26 35 8 29 30 29 34 -1z
m1182 -16 c0 -22 -44 -81 -54 -71 -13 13 -5 51 15 77 23 29 39 26 39 -6z
m-540 -69 c7 -15 27 -37 46 -48 41 -24 43 -43 9 -77 -21 -21 -28 -24 -41 -13
-8 7 -12 19 -9 27 6 16 -45 68 -78 78 -49 15 -75 62 -44 81 8 4 16 16 20 26 6
16 11 15 46 -13 22 -18 45 -45 51 -61z m-430 62 c14 -28 15 -27 -35 -61 -25
-17 -45 -37 -45 -45 0 -24 -19 -17 -26 10 -4 16 1 36 16 60 34 55 71 70 90 36z
m814 -13 c20 -28 20 -43 0 -62 -17 -18 -49 -22 -38 -5 3 6 1 21 -6 34 -25 47
14 76 44 33z m-196 -47 c57 -53 65 -81 30 -105 -35 -25 -48 -20 -42 13 5 24 1
31 -31 51 -29 18 -35 27 -31 44 3 11 6 27 6 34 0 21 13 14 68 -37z m-328 9
c16 -31 2 -60 -36 -76 -43 -18 -67 -54 -58 -88 8 -32 -14 -36 -40 -7 -27 30
-18 83 17 99 15 8 33 25 38 40 21 55 59 70 79 32z m445 -7 c12 -11 15 -25 11
-47 -8 -39 -26 -58 -26 -27 0 14 -7 25 -20 28 -21 6 -35 36 -25 53 10 15 42
12 60 -7z m-961 -26 c-3 -9 -10 -17 -15 -17 -11 0 -12 34 -2 44 11 11 24 -9
17 -27z m333 17 c3 -9 -5 -27 -22 -44 -20 -21 -26 -36 -23 -54 6 -31 -5 -33
-32 -6 -26 26 -25 60 1 94 23 29 66 35 76 10z m899 1 c3 -8 -3 -31 -15 -50
-24 -41 -27 -68 -8 -83 18 -15 32 -3 46 41 14 41 25 46 40 18 11 -19 -13 -99
-33 -113 -6 -4 -9 -24 -7 -45 l3 -38 -22 20 c-15 13 -20 29 -18 52 2 24 -5 40
-25 61 -31 32 -35 77 -12 122 17 32 42 39 51 15z m-1156 -30 c0 -13 -9 -39
-20 -57 -16 -26 -20 -29 -26 -15 -11 31 14 97 37 97 5 0 9 -11 9 -25z m1063
-32 c-7 -55 -8 -57 -22 -48 -23 14 -10 95 15 95 10 0 12 -11 7 -47z m401 -1
c-1 -18 -13 -45 -28 -63 -27 -32 -33 -54 -17 -63 5 -4 19 10 31 29 13 20 30
35 41 35 29 0 23 -36 -11 -67 -16 -14 -30 -35 -30 -45 0 -26 -19 -22 -30 7 -5
14 -14 25 -20 25 -5 0 -17 11 -25 24 -15 22 -15 27 1 58 23 45 67 97 79 94 6
-2 9 -17 9 -34z m-743 -23 c18 -28 42 -55 55 -60 28 -10 31 -35 8 -67 -21 -30
-31 -28 -39 8 -4 17 -16 35 -28 42 -12 6 -25 16 -29 22 -9 12 -11 106 -3 106
3 0 19 -23 36 -51z m263 15 c19 -19 20 -36 4 -52 -17 -17 -38 -15 -38 3 0 8
-4 15 -10 15 -14 0 -12 37 3 43 20 9 25 8 41 -9z m-1064 -31 c0 -45 -16 -60
-24 -23 -6 33 -1 50 15 50 5 0 9 -12 9 -27z m590 17 c0 -5 7 -10 15 -10 8 0
34 -20 58 -45 25 -25 49 -45 55 -45 6 0 14 -10 18 -22 8 -25 -25 -58 -57 -58
-22 0 -23 4 -7 30 16 25 -12 58 -55 62 -38 4 -72 46 -62 77 6 21 35 30 35 11z
m-370 -43 c0 -5 -13 -22 -30 -37 -16 -15 -30 -37 -30 -49 0 -26 -16 -27 -30
-2 -17 33 -12 50 28 90 32 33 39 36 50 22 6 -8 12 -19 12 -24z m755 -2 c30
-29 31 -36 5 -66 -13 -15 -18 -18 -14 -7 4 12 -4 21 -25 33 -42 21 -41 60 2
64 4 1 19 -10 32 -24z m-435 -8 c0 -33 26 -65 68 -85 23 -11 38 -25 40 -39 2
-13 17 -28 38 -38 36 -17 46 -49 22 -73 -20 -20 -36 -14 -31 12 5 26 -24 52
-80 71 -19 7 -37 25 -53 54 -32 60 -44 71 -44 40 0 -15 -12 -37 -30 -54 -16
-16 -30 -39 -30 -51 0 -29 -16 -39 -35 -24 -27 23 -8 115 26 125 17 6 20 13
17 36 -4 24 0 30 16 34 12 2 30 6 41 8 11 3 23 5 28 6 4 0 7 -9 7 -22z m-190
-53 c0 -13 -14 -32 -34 -47 -26 -21 -32 -31 -29 -52 6 -29 -3 -32 -29 -8 -32
29 -16 88 37 135 27 24 31 25 43 10 6 -8 12 -26 12 -38z m748 44 c8 -8 15 -8
26 2 9 7 23 9 32 6 14 -5 13 -10 -6 -41 -24 -39 -18 -47 9 -13 23 28 37 18 46
-34 11 -62 7 -79 -27 -115 -25 -26 -29 -37 -24 -60 7 -26 6 -27 -10 -11 -22
21 -22 89 0 123 23 35 37 75 27 75 -5 0 -12 -11 -15 -25 -13 -52 -56 -17 -56
45 0 18 -6 33 -15 36 -16 6 -21 24 -7 24 4 0 13 -5 20 -12z m282 -3 c16 -19
-2 -74 -36 -106 -22 -21 -25 -30 -20 -69 5 -40 4 -42 -5 -15 -6 17 -16 40 -22
53 -9 19 -6 33 21 87 33 68 42 75 62 50z m-1292 -18 c4 -19 -48 -88 -60 -81
-14 9 -9 38 12 72 21 34 43 38 48 9z m-229 -31 c12 -24 19 -51 15 -60 -13 -33
-96 -35 -102 -2 -4 19 -3 19 23 2 21 -14 29 -15 41 -5 19 16 18 29 -7 55 -12
13 -19 30 -16 38 10 27 24 18 46 -28z m951 -26 c0 -9 16 -25 35 -36 42 -22 46
-55 13 -91 -28 -30 -40 -29 -32 2 5 21 -1 32 -31 60 -23 23 -35 41 -31 51 3 8
-1 28 -9 43 -8 16 -11 31 -8 35 10 9 63 -45 63 -64z m269 9 c15 -42 13 -69 -5
-99 -14 -24 -15 -24 -9 16 4 29 2 46 -8 55 -22 22 -39 58 -32 69 11 17 42 -7
54 -41z m-1091 0 c-3 -22 -4 -22 -21 -5 -14 14 -15 21 -6 32 16 19 32 3 27
-27z m952 -30 c0 -11 10 -29 22 -38 17 -14 20 -23 13 -47 -7 -27 -8 -28 -19
-9 -6 11 -24 32 -39 47 -25 24 -26 29 -15 47 17 27 38 27 38 0z m-1445 -15 c9
-14 25 -34 36 -45 23 -23 25 -65 3 -73 -27 -10 -31 -7 -27 18 3 15 -3 36 -14
53 -22 31 -35 73 -23 73 4 0 15 -12 25 -26z m1955 -15 c0 -9 -9 -28 -20 -42
-12 -15 -20 -41 -20 -64 l-1 -38 -15 29 c-20 36 -13 85 17 127 16 23 24 28 30
17 5 -7 9 -20 9 -29z m-1250 -18 c0 -16 -7 -34 -15 -41 -21 -17 -19 -37 5 -43
29 -7 26 -58 -4 -94 l-24 -28 -7 28 c-6 22 -3 31 14 43 26 19 27 34 1 34 -17
0 -20 7 -20 46 0 51 14 84 35 84 10 0 15 -10 15 -29z m-90 7 c0 -16 -42 -77
-57 -83 -21 -8 -15 53 7 75 22 22 50 27 50 8z m-182 -42 c-2 -15 -9 -20 -26
-19 -17 2 -22 -2 -22 -20 0 -13 -7 -32 -15 -43 -14 -18 -14 -17 -15 13 0 24
-6 35 -26 45 -36 18 -31 34 10 30 22 -2 38 4 51 18 14 16 21 17 32 8 8 -6 13
-21 11 -32z m1108 19 c16 -25 13 -55 -6 -55 -5 0 -10 9 -10 21 0 11 -5 29 -10
40 -16 29 6 24 26 -6z m-1048 -17 c-2 -18 -7 -33 -13 -33 -5 0 -11 15 -13 33
-3 24 1 32 13 32 12 0 16 -8 13 -32z m797 -7 c10 -22 28 -50 41 -62 25 -23 31
-53 14 -64 -5 -3 -10 3 -10 14 0 13 -14 28 -40 43 -37 21 -40 26 -40 66 0 53
12 54 35 3z m745 -9 c0 -8 -16 -29 -36 -47 l-36 -33 23 -21 c21 -19 21 -21 4
-27 -46 -18 -56 65 -15 116 12 14 24 34 27 44 6 18 7 18 20 1 7 -11 13 -25 13
-33z m-1902 13 c2 -10 19 -33 38 -52 44 -44 46 -80 4 -96 -21 -8 -30 -18 -30
-33 0 -24 -24 -54 -42 -54 -6 0 -3 9 6 19 14 15 15 24 6 40 -6 12 -15 21 -20
21 -12 0 -44 49 -37 56 3 3 19 -4 35 -16 60 -44 97 -1 43 49 -22 21 -31 38
-31 61 0 34 22 38 28 5z m723 -9 c10 -38 4 -49 -40 -74 -47 -27 -51 -27 -51
-2 0 24 60 112 74 107 5 -2 13 -16 17 -31z m257 -8 c30 -21 42 -36 42 -53 0
-17 -6 -25 -18 -25 -22 0 -72 50 -72 72 0 9 -4 20 -10 23 -15 9 -12 27 3 19 6
-4 31 -20 55 -36z m-88 3 c0 -20 -10 -38 -34 -59 -19 -16 -37 -39 -41 -51 -10
-33 -30 -20 -33 22 -3 31 1 38 27 52 17 8 31 21 31 28 0 17 20 37 37 37 8 0
13 -12 13 -29z m746 -5 c4 -18 -2 -35 -20 -59 -29 -37 -32 -57 -14 -75 9 -9 8
-12 -5 -12 -43 0 -50 93 -11 139 31 37 42 39 50 7z m-1347 -50 c18 -22 19 -71
1 -71 -10 0 -14 8 -12 27 2 14 -2 29 -7 33 -13 8 -14 25 -2 25 5 0 14 -6 20
-14z m1035 -5 c9 -10 14 -25 10 -35 -8 -20 -23 -21 -30 -2 -3 8 -14 16 -25 19
-10 3 -19 12 -19 21 0 22 43 21 64 -3z m-831 -3 c8 -24 -14 -68 -33 -68 -29 0
-33 17 -13 50 18 31 38 39 46 18z m1001 -14 c5 -17 1 -35 -9 -50 -8 -13 -15
-33 -15 -44 0 -19 -49 -80 -64 -80 -17 0 -3 59 18 80 19 17 24 29 19 52 -4 20
0 35 12 48 24 26 32 25 39 -6z m-94 2 c14 -18 10 -58 -7 -64 -8 -2 -13 6 -13
22 0 13 -4 28 -10 31 -5 3 -10 10 -10 16 0 14 26 11 40 -5z m300 -13 c0 -9
-10 -31 -21 -50 -16 -26 -20 -44 -16 -74 6 -44 -4 -50 -27 -17 -26 37 -20 86
14 118 17 15 30 33 30 40 0 6 5 8 10 5 6 -3 10 -13 10 -22z m-1521 -18 c39
-44 39 -65 1 -108 -16 -19 -30 -42 -30 -51 0 -9 -2 -16 -4 -16 -2 0 -12 -3
-21 -7 -14 -5 -16 -2 -10 16 4 14 1 31 -9 46 -30 46 -16 73 18 36 10 -11 24
-17 31 -14 26 9 21 38 -12 79 -38 48 -40 54 -14 54 10 0 33 -16 50 -35z m231
-32 c0 -19 -30 -13 -43 8 -6 9 -7 25 -3 35 7 18 9 18 27 -5 10 -13 19 -30 19
-38z m315 25 c-4 -18 -12 -35 -17 -37 -26 -9 -48 -44 -48 -73 0 -30 -1 -31
-15 -12 -22 29 -18 61 10 80 15 10 25 26 25 39 0 21 11 29 43 34 5 0 5 -14 2
-31z m208 26 c10 -10 -12 -44 -28 -44 -23 0 -55 -50 -55 -87 0 -41 -17 -40
-40 0 -14 25 -13 28 7 42 12 8 23 25 25 38 4 27 75 67 91 51z m228 -50 c4 -16
14 -43 23 -60 15 -30 13 -64 -4 -64 -5 0 -20 14 -35 32 -20 24 -26 40 -24 69
2 20 -2 43 -9 51 -6 8 -9 18 -5 21 12 13 48 -20 54 -49z m-174 10 c24 -18 33
-33 33 -55 0 -18 -5 -29 -14 -29 -19 0 -42 30 -38 50 1 9 -4 23 -13 30 -15 13
-20 30 -8 30 3 0 21 -11 40 -26z m87 20 c17 -7 22 -54 6 -54 -6 0 -15 12 -20
26 -15 37 -14 39 14 28z m460 -73 c-10 -14 -14 -37 -12 -57 4 -36 -1 -41 -20
-22 -17 17 -15 43 9 90 16 31 23 38 30 27 5 -9 2 -23 -7 -38z m231 -10 c-8
-17 -19 -31 -24 -31 -18 0 -21 -33 -5 -51 16 -18 16 -19 -3 -19 -22 0 -33 18
-33 52 0 24 73 109 78 91 2 -6 -4 -25 -13 -42z m-469 23 c8 -30 -5 -75 -22
-81 -7 -2 -9 8 -6 26 2 16 -1 38 -7 49 -11 21 -6 32 15 32 8 0 17 -12 20 -26z
m-1012 -3 c16 -18 16 -21 -2 -52 -11 -20 -28 -35 -41 -37 -20 -3 -21 -1 -12
17 6 11 11 36 11 55 0 41 17 47 44 17z m209 -5 c3 -7 0 -30 -7 -50 -9 -27 -15
-33 -24 -24 -15 15 -15 29 -2 62 10 29 25 34 33 12z m97 4 c0 -6 -7 -22 -16
-35 -9 -14 -14 -36 -12 -50 6 -30 -7 -33 -22 -6 -15 29 -12 45 13 74 23 27 37
34 37 17z m780 -28 c0 -10 -6 -26 -13 -37 -18 -23 -32 -4 -23 31 7 28 36 33
36 6z m-620 -13 c0 -12 -12 -35 -26 -52 -18 -22 -25 -39 -22 -59 6 -36 -15
-37 -38 -2 -16 24 -16 26 5 54 11 16 21 32 21 36 0 13 33 44 47 44 7 0 13 -9
13 -21z m-392 -24 c2 -16 12 -41 21 -55 13 -18 18 -48 19 -112 1 -48 9 -134
19 -190 10 -59 17 -141 15 -193 -2 -75 -6 -95 -26 -125 -13 -19 -29 -61 -36
-92 -14 -68 -30 -85 -31 -31 0 36 -2 34 -21 -27 -11 -36 -22 -83 -25 -105 -3
-22 -12 -49 -19 -60 -8 -11 -14 -29 -14 -40 0 -11 -16 -40 -35 -64 -49 -61
-45 -78 8 -33 24 21 22 -3 -3 -28 -11 -11 -30 -20 -42 -20 -12 0 -38 -11 -57
-24 -20 -13 -47 -27 -60 -31 -21 -7 -23 -5 -19 19 3 15 1 29 -3 32 -5 3 -9 -2
-9 -10 0 -9 -7 -16 -15 -16 -18 0 -20 31 -3 48 7 7 20 12 30 12 17 0 17 2 3
24 -26 40 -11 55 48 49 46 -4 55 -2 75 20 23 24 41 79 42 122 0 17 -2 17 -10
5 -5 -8 -10 -24 -10 -35 -1 -24 -27 -61 -37 -52 -4 4 -1 30 6 57 7 27 9 54 6
61 -11 18 -25 -10 -25 -52 0 -41 -23 -79 -39 -64 -7 7 -6 23 4 52 21 59 31
128 18 120 -6 -4 -14 -30 -18 -59 -5 -31 -10 -45 -13 -33 -8 33 19 184 49 280
39 126 42 163 25 298 -9 65 -16 138 -16 162 0 42 2 46 35 59 19 8 35 19 35 25
0 6 20 30 45 54 26 26 45 54 45 67 0 34 34 21 38 -15z m65 8 c6 -32 3 -38 -12
-28 -13 8 -15 55 -2 55 5 0 11 -12 14 -27z m483 -17 c-3 -14 -22 -41 -41 -60
-19 -20 -35 -44 -35 -56 0 -28 -18 -25 -32 5 -14 31 10 72 51 86 16 6 34 22
40 36 14 31 26 24 17 -11z m164 14 c24 -24 25 -38 3 -62 -29 -33 -43 -22 -43
32 0 54 9 61 40 30z m174 4 c9 -22 8 -24 -9 -24 -8 0 -15 9 -15 20 0 24 15 27
24 4z m-262 -34 c28 -25 31 -31 18 -41 -11 -8 -12 -12 -2 -16 19 -8 14 -33 -8
-33 -24 0 -46 33 -53 83 -7 45 2 46 45 7z m158 -14 c0 -5 -7 -3 -15 4 -8 7
-12 17 -9 22 7 10 24 -9 24 -26z m340 -2 c0 -16 -26 -19 -35 -4 -4 6 -4 18 -1
27 5 12 9 13 21 3 8 -7 15 -19 15 -26z m130 23 c0 -7 -9 -18 -20 -25 -44 -27
-7 -77 39 -53 23 13 71 15 71 3 0 -4 -7 -18 -16 -31 -13 -18 -14 -28 -6 -47
15 -31 0 -39 -29 -15 -21 17 -22 22 -11 40 18 30 15 34 -18 27 -23 -4 -36 0
-50 14 -24 24 -25 32 -5 70 16 30 45 41 45 17z m-1545 -57 c0 -39 -3 -45 -22
-48 -27 -4 -29 5 -7 29 12 13 13 22 5 38 -15 27 -14 33 7 29 13 -3 17 -13 17
-48z m135 15 c0 -15 -7 -26 -21 -30 -29 -10 -32 -2 -12 33 20 34 33 33 33 -3z
m1200 1 c0 -8 13 -22 29 -33 40 -25 118 -114 131 -149 14 -36 29 -233 20 -254
-13 -29 -10 -343 3 -420 21 -113 45 -150 98 -150 12 0 21 -9 25 -27 10 -52 24
-74 54 -91 20 -11 30 -24 28 -36 -4 -27 -28 -33 -28 -7 0 26 -35 29 -49 4 -8
-14 -10 -8 -11 28 0 29 -7 55 -17 68 -18 22 -18 21 -18 -33 0 -64 -6 -73 -40
-58 -43 20 -134 182 -135 239 0 17 -4 35 -10 38 -5 3 -10 21 -10 38 0 31 -25
92 -49 121 -15 18 -61 157 -62 187 0 13 5 67 11 119 10 88 20 215 22 300 1 19
-2 56 -7 83 -5 33 -4 47 4 47 6 0 11 -6 11 -14z m-134 -14 c6 -4 16 -39 23
-78 12 -62 11 -83 -4 -165 -9 -52 -30 -136 -47 -188 -34 -108 -33 -146 6 -266
27 -80 39 -172 25 -180 -5 -4 -9 -22 -9 -40 0 -27 6 -39 28 -52 38 -25 42 -33
35 -76 -6 -38 -5 -39 16 -25 18 11 23 11 31 -2 5 -8 9 -28 9 -45 l-1 -30 -7
30 c-8 39 -37 41 -33 3 2 -16 -1 -28 -7 -28 -6 0 -11 9 -11 20 0 22 -15 27
-23 8 -3 -7 -6 5 -7 27 0 22 -7 49 -15 59 -8 11 -15 28 -15 37 0 11 -11 20
-29 24 -30 6 -42 35 -41 96 0 14 -10 48 -22 75 -16 36 -23 79 -28 164 -4 63
-8 110 -8 103 -1 -6 -13 -73 -27 -147 -14 -74 -25 -155 -25 -179 0 -25 -7 -61
-15 -80 -8 -20 -15 -48 -15 -62 0 -14 -4 -25 -10 -25 -16 0 -11 43 10 85 17
33 18 44 9 75 -9 31 -6 67 20 211 33 185 44 405 28 522 l-8 57 26 0 c18 0 38
12 62 40 35 39 57 48 79 32z m252 -35 c-10 -20 -11 -20 -24 -2 -18 24 1 52 22
34 10 -8 11 -16 2 -32z m-368 7 c0 -9 -5 -14 -12 -12 -18 6 -21 28 -4 28 9 0
16 -7 16 -16z m-687 -161 c-8 -137 -10 -145 -21 -108 -17 59 -29 179 -20 201
4 10 12 32 18 48 8 21 14 26 21 19 8 -8 8 -56 2 -160z m181 108 l41 -41 -3
-73 c-9 -260 -6 -320 20 -387 14 -36 28 -75 31 -87 6 -28 -9 -31 -16 -3 -3 11
-10 20 -15 20 -6 0 -4 -15 3 -37 27 -79 30 -204 5 -188 -4 3 -11 22 -15 43 -9
57 -28 78 -21 23 6 -41 -4 -71 -25 -71 -4 0 -11 26 -15 58 l-8 57 -6 -65 c-5
-49 -14 -77 -38 -114 -18 -28 -32 -60 -32 -72 0 -12 -5 -45 -12 -74 -8 -37
-16 -50 -27 -48 -11 2 -16 14 -16 38 0 28 -4 35 -20 35 -17 0 -20 -6 -18 -38
2 -32 0 -38 -15 -35 -22 5 -21 64 2 87 20 19 44 7 63 -30 l13 -24 0 25 c0 14
3 35 6 48 5 18 2 22 -18 22 -22 0 -24 4 -20 30 4 25 9 30 32 30 33 0 48 29 55
108 l4 57 -10 -50 c-11 -52 -32 -85 -56 -85 -15 0 -18 46 -4 55 6 3 14 -3 20
-12 14 -24 15 409 1 457 -6 19 -18 89 -27 155 -30 213 -23 241 55 232 35 -4
53 -13 86 -46z m286 29 c0 -28 -22 -71 -34 -67 -16 5 -18 30 -7 60 12 31 41
36 41 7z m113 4 c8 -8 -10 -44 -22 -44 -5 0 -6 11 -3 25 4 25 13 31 25 19z
m311 -91 c9 -93 -24 -351 -54 -421 -24 -55 -40 -67 -40 -29 0 35 22 221 28
237 8 19 10 42 20 166 5 55 12 106 16 112 14 23 24 2 30 -65z m-1223 11 c13
-39 15 -74 10 -169 -3 -67 -10 -120 -16 -120 -15 0 -34 130 -34 243 -1 117 12
132 40 46z m658 32 c19 -20 22 -31 16 -53 -4 -15 -9 -93 -10 -173 -2 -150 -18
-234 -50 -260 -13 -11 -15 -5 -15 44 0 31 -7 124 -16 208 -13 122 -13 161 -4
193 21 71 41 81 79 41z m798 -13 c-3 -3 -11 -2 -17 2 -9 6 -9 10 1 16 14 8 27
-7 16 -18z m-610 -30 c-16 -16 -17 -16 -17 3 0 11 3 24 7 28 4 3 11 2 17 -4 7
-7 5 -16 -7 -27z m97 5 c3 -13 6 -38 6 -56 0 -18 5 -42 11 -53 7 -14 7 -48 -1
-117 -14 -122 -29 -182 -40 -162 -18 34 -40 165 -46 274 -7 115 -7 116 17 125
37 15 46 13 53 -11z m576 -54 c18 -45 12 -270 -10 -383 l-20 -104 26 -86 c14
-47 33 -107 44 -133 22 -57 11 -63 -21 -11 -13 20 -24 32 -26 26 -4 -12 11
-49 34 -83 13 -19 9 -18 -19 8 -69 65 -89 216 -58 442 7 52 13 152 14 222 1
97 4 128 14 128 7 0 17 -12 22 -26z m-705 -24 c3 -5 12 -7 19 -4 19 7 26 -39
26 -185 0 -95 6 -148 22 -216 29 -119 26 -225 -7 -308 l-25 -59 21 -49 c39
-90 11 -115 -111 -102 -54 5 -60 8 -60 29 0 12 -5 26 -11 29 -6 4 -8 22 -4 45
4 23 2 41 -4 44 -10 7 -12 49 -13 251 0 41 7 91 17 120 15 43 16 72 11 196 -4
81 -4 162 -1 181 6 34 7 35 60 36 30 1 57 -3 60 -8z m-446 -575 c13 -31 11
-41 -26 -108 -11 -22 -20 -27 -36 -23 -12 3 -27 0 -34 -6 -24 -19 -23 -3 2 47
13 28 25 64 25 80 0 17 7 52 15 79 8 27 15 81 15 121 0 120 15 95 21 -37 3
-67 11 -136 18 -153z m871 24 c15 -154 14 -169 -14 -169 -13 0 -29 6 -36 14
-16 20 -16 226 0 256 22 41 40 3 50 -101z m-224 -36 c8 -59 10 -103 4 -135 -9
-44 0 -98 15 -98 3 0 11 14 16 30 12 34 21 37 39 15 10 -13 10 -19 -5 -35 -18
-19 -17 -20 6 -20 13 0 30 -4 38 -9 17 -11 19 -67 3 -83 -17 -17 -24 -5 -14
23 16 44 -10 67 -38 34 -10 -12 -10 -19 -2 -27 16 -16 15 -38 -2 -38 -15 0
-26 21 -26 49 0 10 -9 26 -21 37 -21 19 -21 19 -9 -8 13 -28 8 -58 -10 -58 -5
0 -10 11 -10 25 0 16 -6 25 -16 25 -11 0 -15 -8 -12 -32 2 -19 -2 -33 -9 -35
-16 -6 -18 59 -3 87 7 13 7 21 0 25 -13 8 -13 45 0 45 6 0 13 -7 16 -15 11
-27 23 -16 14 13 -16 56 -10 295 7 278 3 -3 11 -45 19 -93z m-765 40 c-6 -21
-11 -50 -11 -65 0 -15 -5 -30 -12 -34 -14 -9 -5 80 13 119 17 38 23 27 10 -20z
m404 -218 c4 -27 3 -37 -4 -30 -17 17 -35 185 -26 240 8 47 9 44 16 -60 4 -60
10 -128 14 -150z m649 160 c20 -75 21 -91 2 -76 -7 6 -16 35 -19 64 -3 28 -9
61 -13 72 -5 14 -4 17 4 10 6 -5 18 -37 26 -70z m-742 -87 c0 -13 0 -35 -1
-50 -2 -20 2 -28 14 -28 12 0 14 -4 5 -19 -7 -13 -7 -22 0 -26 6 -3 13 1 16 9
8 20 34 21 34 1 0 -8 -8 -15 -18 -15 -28 0 -42 -21 -42 -61 0 -21 -5 -41 -12
-45 -8 -5 -9 0 -5 17 6 22 -1 57 -25 118 l-9 23 -22 -33 c-23 -34 -23 -34 -3
-42 19 -7 35 -25 36 -38 0 -3 -7 -14 -15 -25 -15 -18 -15 -18 -13 11 3 26 -1
30 -25 33 -25 3 -27 1 -25 -29 2 -18 -2 -34 -9 -36 -16 -6 -18 63 -3 72 6 3
10 21 10 40 0 19 5 46 10 60 9 22 15 26 35 21 19 -5 25 -2 25 9 0 22 18 55 30
55 6 0 11 -10 12 -22z m-332 -20 c0 -7 -5 -20 -10 -28 -8 -12 -10 -9 -10 13 0
15 5 27 10 27 6 0 10 -6 10 -12z m965 -37 c-8 -8 -35 22 -35 38 0 12 5 10 20
-9 10 -14 17 -27 15 -29z m125 34 c-35 -20 -57 -20 -40 0 7 8 24 15 39 15 l26
-1 -25 -14z m-1513 -60 c-6 -40 -48 -125 -63 -125 -13 0 -44 21 -44 30 0 6 11
10 25 10 25 0 55 41 55 75 0 19 18 55 27 55 3 0 3 -20 0 -45z m449 -8 c-3 -12
-24 -37 -46 -55 l-40 -33 0 46 c0 43 1 45 24 39 20 -5 28 0 42 28 14 26 19 29
22 15 2 -10 1 -28 -2 -40z m50 -24 c-17 -24 -26 -51 -26 -75 0 -21 -4 -38 -8
-38 -5 0 -7 13 -4 29 3 20 -1 30 -13 35 -26 9 -35 -2 -35 -42 -1 -30 -2 -34
-11 -19 -18 31 -6 61 31 79 24 12 39 29 47 55 16 44 37 61 41 33 2 -10 -8 -36
-22 -57z m1005 2 c-3 -5 -8 4 -12 20 -3 17 -3 35 0 40 3 6 8 -3 12 -20 3 -16
3 -34 0 -40z m33 49 c9 -23 7 -52 -3 -58 -5 -3 -11 12 -13 34 -4 40 5 53 16
24z m-1445 -8 c8 -10 9 -16 1 -21 -5 -3 -10 -22 -10 -40 0 -25 -6 -37 -21 -45
-26 -14 -27 -13 -35 37 -5 34 -2 45 15 62 25 25 34 26 50 7z m1371 -15 c0 -33
24 -78 40 -74 11 3 10 1 -2 -10 -21 -17 -23 -38 -6 -55 9 -9 8 -12 -5 -12 -11
0 -18 12 -23 38 -4 20 -15 54 -25 74 -24 47 -24 58 1 58 13 0 20 -7 20 -19z
m468 -24 c3 -34 9 -42 53 -69 42 -27 49 -35 48 -62 l-1 -31 -7 30 c-4 18 -14
31 -25 33 -17 4 -18 -1 -13 -37 4 -30 2 -41 -8 -41 -10 0 -12 9 -9 33 5 26 1
37 -20 56 -14 14 -26 31 -26 38 0 15 -18 49 -40 76 -14 18 -13 19 15 15 27 -3
30 -7 33 -41z m-60 7 c16 -11 21 -24 20 -47 0 -18 2 -51 7 -73 5 -27 3 -44 -4
-48 -7 -5 -11 6 -11 33 0 29 -6 44 -21 55 -25 17 -59 65 -59 84 0 17 41 15 68
-4z m-1035 -51 c10 -16 12 -75 2 -72 -5 2 -8 16 -6 32 2 22 -2 27 -18 27 -16
0 -21 -6 -21 -24 0 -14 5 -28 10 -31 13 -8 13 -25 0 -25 -15 0 -32 51 -25 77
4 16 13 23 30 23 13 0 26 -3 28 -7z m737 -25 c25 -42 25 -58 0 -58 -13 0 -18
5 -14 15 3 8 1 28 -4 45 -14 39 -7 38 18 -2z m-1133 -30 c-3 -7 -5 -2 -5 12 0
14 2 19 5 13 2 -7 2 -19 0 -25z m100 10 c-3 -8 -6 -5 -6 6 -1 11 2 17 5 13 3
-3 4 -12 1 -19z m143 -4 c0 -8 -4 -14 -10 -14 -5 0 -10 9 -10 21 0 11 5 17 10
14 6 -3 10 -13 10 -21z m135 17 c3 -5 1 -12 -5 -16 -5 -3 -10 1 -10 9 0 18 6
21 15 7z m362 -13 c-3 -8 -6 -5 -6 6 -1 11 2 17 5 13 3 -3 4 -12 1 -19z m123
6 c0 -8 -4 -12 -10 -9 -5 3 -10 10 -10 16 0 5 5 9 10 9 6 0 10 -7 10 -16z
m230 -27 c0 -10 -4 -15 -10 -12 -5 3 -10 18 -10 33 0 21 2 24 10 12 5 -8 10
-23 10 -33z m-1505 20 c22 -16 15 -61 -11 -71 -24 -9 -28 -1 -12 23 10 17 10
23 0 33 -10 10 -15 10 -22 -2 -8 -13 -10 -13 -10 1 0 31 24 38 55 16z m1909
-6 c10 -11 16 -29 13 -43 -4 -22 -4 -21 -6 3 -1 27 -23 54 -34 42 -4 -3 -7 -1
-7 5 0 18 15 14 34 -7z m-2024 -16 c0 -8 -4 -15 -10 -15 -5 0 -10 7 -10 15 0
8 5 15 10 15 6 0 10 -7 10 -15z m42 -7 c10 -29 -4 -58 -28 -58 -27 0 -32 15
-9 24 8 3 15 15 15 26 0 22 16 28 22 8z m1974 -35 c-11 -11 -19 6 -11 24 8 17
8 17 12 0 3 -10 2 -21 -1 -24z m83 10 c0 -25 -1 -26 -9 -8 -12 27 -12 35 0 35
6 0 10 -12 9 -27z m-1462 -11 c-8 -9 -20 -30 -26 -45 -12 -31 -43 -34 -49 -6
-5 25 36 69 65 69 24 0 25 -1 10 -18z m76 0 c-11 -9 -23 -26 -25 -36 -4 -23
-18 -29 -36 -17 -12 7 -11 14 2 40 13 25 23 31 49 31 32 0 32 0 10 -18z m75 4
c-10 -7 -18 -20 -18 -29 0 -20 -11 -26 -33 -18 -17 6 -17 8 3 34 12 15 31 27
43 27 20 -1 21 -2 5 -14z m72 10 c0 -3 -13 -19 -29 -36 -33 -36 -53 -25 -27
15 14 21 56 36 56 21z m1040 -12 c0 -8 -4 -12 -10 -9 -5 3 -10 10 -10 16 0 5
5 9 10 9 6 0 10 -7 10 -16z m-1532 -1 c-3 -5 -11 -23 -18 -40 -16 -36 -50 -46
-50 -15 0 23 36 62 56 62 9 0 14 -3 12 -7z m92 -2 c0 -5 -7 -14 -15 -21 -8 -7
-15 -19 -15 -26 0 -8 -10 -14 -25 -14 -30 0 -31 9 -4 44 19 25 59 36 59 17z
m88 -8 c-8 -10 -18 -26 -21 -35 -4 -12 -17 -18 -36 -18 -29 0 -30 1 -20 27 13
34 26 43 63 43 27 0 28 -1 14 -17z m836 -14 c32 -38 33 -51 4 -47 -13 2 -24
11 -27 23 -2 11 -9 24 -17 28 -18 10 -18 27 0 27 8 0 26 -14 40 -31z m78 -3
c25 -30 22 -46 -7 -46 -18 0 -25 5 -25 19 0 10 -7 24 -15 31 -8 7 -15 16 -15
20 0 15 45 -3 62 -24z m-1255 -11 c-12 -39 -37 -47 -37 -12 0 25 17 47 36 47
9 0 10 -8 1 -35z m73 15 c-11 -11 -17 -26 -14 -35 7 -17 -31 -22 -41 -5 -12
19 24 60 50 60 25 0 25 0 5 -20z m1040 5 c19 -23 9 -25 -25 -4 -26 17 -27 19
-9 19 12 0 27 -7 34 -15z m217 -7 c28 -27 30 -48 3 -48 -13 0 -24 10 -31 27
-6 15 -16 31 -22 35 -8 5 -5 8 7 8 11 0 30 -10 43 -22z m88 -5 c25 -30 24 -43
-4 -43 -15 0 -24 11 -49 63 -10 19 32 4 53 -20z m82 5 c25 -23 31 -58 11 -58
-12 0 -68 62 -68 74 0 14 36 4 57 -16z m-1555 -10 c-9 -37 -42 -52 -42 -20 0
21 18 42 36 42 8 0 10 -8 6 -22z m1099 -16 c80 -38 159 -119 197 -199 20 -44
27 -78 30 -143 7 -140 -45 -257 -149 -340 -76 -60 -147 -84 -254 -84 -81 -1
-97 2 -157 31 -130 61 -216 173 -239 309 -29 165 60 342 211 419 69 36 114 45
205 42 77 -3 100 -8 156 -35z m537 13 c16 -35 15 -45 -5 -45 -10 0 -26 16 -35
35 -18 35 -18 35 6 35 15 0 27 -9 34 -25z m66 -8 c31 -40 32 -47 7 -47 -15 0
-61 56 -61 76 0 16 33 -2 54 -29z m-1766 9 c-10 -7 -18 -21 -18 -30 0 -19 -11
-21 -28 -4 -16 16 13 48 42 48 20 -1 20 -2 4 -14z m1847 -6 c9 -10 15 -26 12
-35 -7 -16 -27 -21 -27 -5 0 5 -12 21 -27 35 l-28 25 26 0 c14 0 34 -9 44 -20z
m-1925 -15 c0 -16 -6 -25 -15 -25 -18 0 -20 21 -3 38 17 17 18 16 18 -13z
m1994 3 c20 -28 20 -38 1 -38 -8 0 -15 5 -15 12 0 6 -7 20 -17 30 -14 16 -15
18 0 18 9 0 23 -10 31 -22z m66 -13 c8 -10 10 -19 4 -25 -5 -5 -14 1 -21 16
-12 27 -2 32 17 9z m50 0 c6 -8 9 -19 5 -25 -11 -17 -22 -11 -27 15 -6 28 3
32 22 10z m-1480 -30 c11 -13 9 -20 -10 -40 -12 -13 -28 -21 -36 -18 -9 3 -12
0 -9 -9 4 -9 -4 -20 -20 -28 -25 -13 -34 -30 -15 -30 6 0 5 -10 -2 -25 -6 -14
-18 -25 -26 -25 -11 0 -12 -3 -3 -14 6 -7 9 -20 6 -28 -4 -9 1 -18 9 -21 18
-7 22 -42 6 -52 -17 -10 -80 6 -80 21 0 8 -5 14 -11 14 -5 0 -7 -4 -4 -10 3
-5 2 -10 -4 -10 -5 0 -13 4 -16 10 -3 5 -20 8 -38 6 -42 -5 -77 9 -77 32 0 10
-9 36 -20 57 -33 64 -46 125 -29 136 11 7 10 9 -5 9 -14 0 -17 3 -9 11 12 12
148 26 284 28 76 1 99 -2 109 -14z m976 -11 c-8 -31 8 -54 39 -54 28 0 47 22
39 45 -5 13 -3 16 7 13 8 -2 15 -17 17 -31 2 -15 7 -27 12 -27 5 0 9 -26 9
-57 0 -66 -24 -102 -68 -104 -18 -1 -20 -3 -8 -6 13 -3 16 -10 11 -26 -6 -20
-5 -20 26 4 17 13 44 36 58 52 30 30 63 35 87 11 14 -15 14 -19 -5 -51 -24
-41 -25 -51 -4 -74 14 -15 20 -16 46 -5 38 16 93 6 122 -24 28 -28 31 -146 3
-161 -9 -6 -17 -17 -17 -26 0 -9 -8 -25 -17 -35 -10 -11 -29 -43 -43 -71 -20
-42 -30 -53 -52 -55 -22 -3 -28 1 -28 16 0 11 7 25 15 32 8 7 15 17 15 23 0 5
16 29 35 53 19 23 35 50 35 59 0 9 5 26 11 38 11 21 11 21 -14 -2 -29 -26
-111 -39 -137 -22 -12 8 -12 13 4 30 22 24 32 92 17 117 -9 16 -10 14 -11 -17
0 -21 -10 -51 -24 -72 -19 -27 -24 -45 -20 -69 4 -20 -1 -45 -10 -63 -9 -16
-16 -47 -16 -67 0 -55 -8 -68 -42 -68 -26 0 -29 2 -18 15 8 9 10 27 6 46 -5
27 -4 30 9 19 20 -17 30 8 15 41 -22 49 -40 74 -41 59 -5 -38 -12 -59 -46
-127 -24 -49 -28 -53 -61 -53 l-36 0 27 28 c26 27 64 118 54 128 -3 3 -8 -4
-12 -15 -3 -12 -14 -21 -23 -21 -15 0 -15 -2 -2 -10 12 -7 12 -12 2 -22 -6 -6
-12 -20 -12 -30 0 -11 -7 -18 -20 -18 -13 0 -20 -7 -20 -20 0 -15 -7 -20 -28
-20 -16 0 -71 -3 -123 -6 -68 -4 -90 -3 -79 5 8 6 26 11 39 11 13 0 21 3 18 7
-4 3 10 25 31 48 73 81 90 103 97 123 3 12 9 21 13 21 19 -3 25 2 13 10 -12 8
-12 12 -3 24 7 8 12 19 11 23 -3 12 11 123 18 149 l6 20 7 -20 c4 -11 3 -25
-2 -32 -6 -7 -4 -13 4 -17 11 -5 11 -7 0 -12 -10 -5 -10 -9 -1 -21 10 -11 10
-16 0 -22 -10 -6 -9 -10 3 -14 21 -8 20 -27 -1 -28 -16 -1 -16 -2 -1 -6 9 -2
28 -24 42 -48 20 -34 30 -42 46 -38 28 7 66 59 79 107 11 41 7 64 -5 30 -21
-60 -45 -105 -59 -110 -30 -12 -27 5 16 78 23 40 44 76 46 81 2 4 2 7 -1 7 -2
0 -23 -29 -45 -65 -23 -36 -48 -65 -56 -65 -25 0 -17 20 24 65 21 23 44 53 51
66 7 13 -7 3 -32 -23 -24 -27 -52 -48 -60 -48 -10 0 6 22 40 57 47 46 49 49
10 15 -26 -23 -53 -42 -60 -42 -7 1 -2 10 12 22 24 20 24 20 3 14 -28 -9 -30
5 -3 22 11 7 20 16 20 21 0 5 -9 7 -20 4 -11 -3 -20 -1 -20 5 0 12 24 22 51
22 23 0 25 16 3 24 -10 4 -25 -1 -35 -10 -21 -19 -59 -10 -59 14 1 16 2 15 11
0 5 -10 15 -18 20 -18 6 0 7 5 3 12 -4 6 -3 8 4 4 22 -13 22 13 0 28 -12 9
-17 16 -11 16 7 0 9 14 6 42 -5 33 -2 44 13 55 15 11 16 17 6 33 -12 19 -8 43
11 68 15 19 20 14 13 -14z m-1451 -16 c-7 -32 -7 -33 12 -15 24 21 37 22 30 3
-4 -10 -1 -13 9 -9 17 6 18 -10 3 -39 -10 -18 -9 -20 5 -15 19 7 22 -13 4 -31
-6 -6 -8 -15 -4 -19 4 -4 11 -1 16 7 5 8 12 11 16 7 4 -3 1 -13 -6 -22 -10
-12 -10 -15 4 -15 20 0 21 -19 1 -26 -25 -10 -17 -25 10 -18 29 7 32 -2 8 -29
-17 -19 -17 -19 6 -12 16 5 21 4 17 -4 -4 -6 -14 -11 -22 -11 -8 0 -14 -4 -14
-9 0 -13 89 -20 120 -9 20 6 39 4 71 -7 24 -9 51 -19 60 -21 18 -6 57 24 60
46 1 8 -1 32 -6 54 -6 29 -4 46 9 66 9 16 16 34 16 40 0 12 74 90 85 90 15 0
1 -32 -20 -46 -23 -15 -24 -18 -10 -34 21 -23 19 -37 -6 -45 -15 -5 -17 -10
-9 -20 8 -10 8 -15 0 -20 -8 -5 -8 -11 -1 -19 6 -7 8 -16 4 -20 -4 -4 -9 -24
-10 -44 -3 -48 -29 -69 -98 -77 -53 -7 -54 -8 -40 -28 8 -12 15 -32 15 -45 0
-33 48 -92 88 -109 27 -11 33 -18 29 -35 -4 -14 0 -22 12 -25 23 -6 54 -64 45
-86 -3 -10 -17 -17 -30 -17 -21 0 -23 3 -15 19 24 44 -100 150 -193 164 -21 4
-56 17 -76 31 -36 24 -38 24 -43 6 -9 -34 -35 -34 -72 -1 -20 17 -39 31 -44
31 -4 0 -13 10 -19 23 -10 20 -11 19 -11 -14 -1 -44 -41 -85 -93 -94 -36 -7
-56 -29 -37 -41 6 -3 7 -19 4 -35 -6 -25 -3 -29 14 -29 11 0 22 -9 26 -21 9
-27 3 -32 -28 -20 -35 14 -49 43 -45 99 3 42 7 49 36 64 45 22 47 25 32 42
-18 22 -15 80 7 116 17 30 17 32 1 41 -19 10 -24 44 -9 53 23 15 13 166 -11
166 -6 0 -7 -7 -3 -17 15 -35 17 -61 6 -67 -6 -4 -11 -16 -11 -27 0 -23 -13
-25 -30 -4 -10 12 -10 29 0 82 20 108 39 132 103 133 38 0 39 0 32 -32z m1387
13 c-1 -7 3 -19 9 -27 7 -9 8 -14 1 -14 -7 0 -9 -20 -6 -53 4 -43 1 -59 -15
-78 l-19 -24 -12 30 c-6 17 -13 40 -14 53 -2 12 -8 28 -14 34 -6 6 -8 17 -5
24 3 8 -1 14 -8 14 -8 0 -22 14 -31 31 l-18 30 68 -3 c50 -2 66 -6 64 -17z
m118 -11 c0 -11 -6 -20 -14 -20 -18 0 -29 16 -21 30 11 18 35 11 35 -10z m116
5 c4 -10 13 -13 25 -10 11 4 19 2 19 -5 0 -7 7 -9 16 -6 20 8 75 -21 71 -37
-1 -7 7 -11 20 -10 28 3 53 -25 32 -38 -12 -8 -12 -10 1 -19 13 -9 13 -11 0
-21 -11 -8 -12 -12 -2 -16 6 -2 12 -11 12 -19 0 -9 -4 -12 -10 -9 -5 3 -10 -1
-10 -10 0 -9 5 -13 10 -10 6 3 10 0 10 -9 0 -8 -6 -17 -12 -20 -10 -5 -10 -7
0 -12 28 -13 9 -25 -35 -22 l-48 3 1 57 c2 56 2 56 -37 74 -22 9 -39 23 -39
30 0 8 -9 13 -22 11 -19 -2 -23 2 -21 26 1 15 -2 27 -6 27 -10 0 -21 47 -13
55 11 10 33 5 38 -10z m-1901 -59 c34 -81 44 -394 15 -489 -16 -56 -22 -39 -9
24 17 78 6 360 -16 419 -26 72 -28 80 -16 80 7 0 18 -15 26 -34z m67 -230 c11
-227 3 -346 -27 -375 -15 -15 -15 -14 -5 13 13 35 18 368 8 516 -6 80 -5 99 3
80 6 -14 16 -119 21 -234z m2136 -30 c3 -210 -2 -336 -13 -324 -8 8 -27 560
-20 586 l7 27 11 -25 c6 -15 12 -125 15 -264z m46 57 c6 -171 0 -370 -12 -358
-10 9 -21 396 -15 489 9 130 19 80 27 -131z m50 137 c27 -119 15 -434 -18
-467 -3 -4 -6 68 -6 158 0 90 -3 215 -7 278 -7 131 6 144 31 31z m-2193 -95
c1 -24 3 -26 6 -7 6 28 14 28 41 -1 20 -21 21 -26 9 -72 -6 -28 -16 -48 -21
-47 -5 2 -18 -11 -30 -30 l-21 -33 -7 85 c-3 47 -6 126 -6 175 l0 90 14 -65
c7 -36 14 -78 15 -95z m2266 -95 c-5 -164 -25 -236 -26 -95 -1 50 2 142 6 205
6 103 8 110 16 70 4 -25 6 -106 4 -180z m-2396 11 c0 -100 -4 -168 -11 -179
-9 -14 -10 -11 -6 17 3 18 6 101 6 184 0 83 3 148 6 144 3 -3 6 -78 5 -166z
m2449 9 c0 -3 -7 -15 -15 -26 -13 -18 -14 -16 -14 26 0 42 1 44 14 26 8 -11
15 -23 15 -26z m-2480 -36 c0 -12 -4 -26 -10 -29 -6 -3 -10 5 -10 19 0 13 -3
33 -7 43 -6 16 -5 16 10 4 9 -7 17 -24 17 -37z m-43 -6 c-3 -8 -6 -5 -6 6 -1
11 2 17 5 13 3 -3 4 -12 1 -19z m847 -17 c4 -5 0 -12 -6 -14 -10 -4 -9 -8 2
-16 13 -10 13 -12 0 -21 -13 -8 -12 -10 3 -10 9 0 17 -7 17 -15 0 -8 -4 -15
-10 -15 -5 0 -10 -5 -10 -11 0 -6 6 -9 13 -6 7 3 19 -4 25 -14 8 -12 8 -19 2
-19 -5 0 -10 -4 -10 -10 0 -5 7 -10 15 -10 8 0 37 -34 65 -75 l51 -75 -40 0
c-25 0 -41 5 -45 15 -3 8 -1 15 4 15 6 0 10 5 10 10 0 6 -6 10 -14 10 -18 0
-60 67 -59 92 1 12 -8 19 -32 24 -30 5 -71 34 -50 34 5 0 0 9 -10 20 -17 19
-17 20 0 20 10 0 15 3 11 8 -4 4 -13 7 -19 7 -7 0 -13 12 -15 27 -3 21 2 27
20 31 42 8 77 7 82 -2z m-574 -20 c0 -5 -7 -11 -15 -15 -8 -3 -15 -15 -15 -26
0 -13 -7 -20 -20 -20 -24 0 -26 18 -4 48 15 21 54 31 54 13z m-20 -88 c3 -3
-7 -13 -22 -24 -22 -16 -27 -29 -33 -89 -4 -40 -13 -74 -21 -81 -13 -10 -13
-8 -4 15 5 15 10 65 10 111 l0 85 33 -7 c17 -3 34 -8 37 -10z m201 -34 c11 -5
17 -14 14 -20 -4 -5 24 -9 69 -9 63 0 80 -4 96 -20 11 -11 27 -20 35 -20 25 0
72 -28 79 -46 10 -26 -2 -51 -27 -58 -29 -8 -323 -5 -362 3 -17 3 -30 13 -30
21 0 8 -6 19 -13 23 -7 5 -9 13 -6 19 5 7 1 9 -9 5 -13 -5 -17 0 -17 21 0 23
7 30 46 46 25 10 48 25 51 32 6 17 46 18 74 3z m1699 -8 c0 -11 -39 -26 -59
-22 -9 2 -12 -3 -7 -14 8 -21 -32 -115 -50 -115 -7 0 -14 -10 -17 -22 -3 -22
-4 -22 -12 -3 -5 11 -13 23 -19 27 -7 5 -7 8 2 8 6 0 12 7 12 15 0 8 -4 15
-10 15 -5 0 -10 4 -10 10 0 5 7 7 15 4 9 -4 15 0 15 9 0 8 -4 17 -10 19 -6 2
-6 15 -2 33 8 27 11 29 53 27 24 -2 55 1 69 7 14 5 26 10 28 10 1 1 2 -3 2 -8z
m-1413 -39 c17 -9 41 -30 53 -45 19 -23 21 -34 13 -60 -6 -22 -16 -33 -31 -35
-26 -4 -28 5 -6 29 15 17 15 21 -2 56 -11 21 -29 43 -42 49 -12 6 -25 14 -29
18 -12 11 12 5 44 -12z m1503 -77 c-12 -44 -33 -66 -47 -51 -4 3 -1 17 7 30 7
14 10 36 6 49 -3 14 -3 33 0 42 6 15 9 15 27 -3 18 -19 19 -24 7 -67z m-359 8
c-12 -20 -14 -14 -5 12 4 9 9 14 11 11 3 -2 0 -13 -6 -23z m295 -5 c-3 -13 -6
-31 -6 -41 0 -10 -4 -15 -10 -12 -11 7 -14 58 -3 68 14 15 25 6 19 -15z
m-1904 -70 c-8 -8 -9 -15 -1 -25 9 -10 8 -13 -4 -13 -9 0 -19 5 -22 10 -10 17
3 40 22 40 13 0 14 -3 5 -12z m61 -18 c-6 -22 -33 -28 -33 -7 0 17 10 27 26
27 7 0 10 -8 7 -20z m48 7 c-6 -8 -8 -17 -4 -20 3 -4 1 -7 -5 -7 -15 0 -25 18
-17 30 3 6 13 10 22 10 12 0 13 -3 4 -13z m60 4 c-7 -5 -10 -14 -6 -21 5 -8 1
-11 -11 -8 -10 2 -20 11 -22 21 -3 13 3 17 25 17 20 0 24 -3 14 -9z m76 -5
c-10 -8 -15 -20 -11 -30 8 -21 -14 -21 -38 1 -18 16 -18 17 4 30 13 7 32 12
43 12 19 0 19 0 2 -13z m70 3 c-12 -7 -16 -17 -12 -30 7 -22 -14 -26 -33 -7
-16 16 13 48 42 48 19 -1 20 -1 3 -11z m55 -2 c-6 -7 -9 -23 -5 -35 6 -25 -9
-29 -27 -7 -10 13 -10 19 5 35 20 22 44 28 27 7z m58 -2 c-10 -12 -10 -19 -2
-27 7 -7 12 -16 12 -20 0 -14 -37 -9 -50 7 -10 13 -10 19 5 35 22 25 55 29 35
5z m254 6 c3 -5 -8 -14 -24 -21 -21 -9 -30 -19 -30 -36 0 -28 -12 -31 -34 -8
-25 24 -19 41 22 57 43 19 59 20 66 8z m115 -29 c-13 -9 -18 -20 -14 -33 5
-15 1 -19 -18 -19 -36 0 -41 26 -10 50 31 24 23 26 -17 5 -18 -9 -30 -24 -30
-35 0 -23 -29 -27 -48 -8 -20 20 -14 28 39 52 43 18 57 21 84 12 32 -10 32
-11 14 -24z m1180 24 c8 -9 8 -16 2 -20 -6 -4 -15 3 -21 14 -12 23 2 27 19 6z
m-1489 -11 c-6 -8 -9 -23 -5 -36 8 -25 -12 -23 -29 3 -12 19 7 48 31 48 12 0
13 -3 3 -15z m82 -3 c-16 -12 -21 -23 -16 -36 6 -14 2 -17 -17 -14 -53 7 -26
68 30 68 l26 0 -23 -18z m1366 6 c7 -7 12 -16 12 -20 0 -15 -15 -8 -28 12 -13
22 -3 27 16 8z m-701 -20 c24 -22 29 -43 14 -52 -15 -10 -43 5 -37 20 3 7 -2
18 -9 24 -14 11 -12 30 2 30 4 0 17 -10 30 -22z m661 10 c7 -7 12 -16 12 -20
0 -15 -15 -8 -28 12 -13 22 -3 27 16 8z m-1041 -28 c0 -25 -4 -30 -24 -30 -25
0 -32 27 -11 48 21 21 35 13 35 -18z m327 5 c15 -23 15 -25 -3 -35 -27 -14
-31 -13 -31 9 0 11 -5 23 -10 26 -6 4 -8 11 -5 16 11 16 32 10 49 -16z m114
13 c17 -21 18 -52 2 -55 -10 -2 -19 9 -26 32 -12 37 2 49 24 23z m82 -3 c18
-21 8 -50 -19 -53 -20 -3 -23 0 -18 17 3 12 1 24 -4 27 -5 3 -9 9 -9 15 0 14
36 11 50 -6z m61 -3 c27 -22 20 -52 -12 -52 -15 0 -19 4 -15 16 4 10 -1 25
-10 35 -15 17 -15 19 -2 19 9 0 26 -8 39 -18z m74 -43 c-11 -16 -35 -9 -35 10
0 11 -3 28 -6 38 -4 12 2 9 20 -10 15 -16 24 -33 21 -38z m63 45 c18 -12 20
-19 12 -35 -13 -23 -40 -25 -40 -2 0 9 -7 25 -17 35 -15 17 -15 18 3 18 11 0
30 -7 42 -16z m57 0 c18 -19 16 -45 -4 -52 -10 -3 -12 0 -8 12 4 10 -1 24 -13
36 -15 15 -16 20 -6 20 8 0 22 -7 31 -16z m68 -6 c6 -8 7 -24 3 -34 -6 -16 -9
-15 -21 10 -8 16 -15 33 -15 38 0 14 22 5 33 -14z m62 2 c10 -30 -5 -47 -22
-25 -7 11 -13 25 -13 32 0 21 28 15 35 -7z m43 -8 c2 -12 -1 -22 -7 -22 -6 0
-11 4 -11 9 0 5 -3 17 -7 27 -4 12 -2 15 8 12 8 -2 15 -14 17 -26z m49 13 c8
-22 -6 -33 -17 -15 -13 20 -12 30 0 30 6 0 13 -7 17 -15z m-952 -3 c6 -4 11
-17 13 -30 3 -20 0 -23 -20 -20 -17 2 -24 11 -26 31 -3 27 11 35 33 19z m224
-14 c10 -28 6 -38 -18 -38 -12 0 -16 7 -15 28 2 33 1 32 14 32 6 0 14 -10 19
-22z m-141 2 c6 0 12 -9 12 -20 0 -27 -45 -27 -60 -1 -15 29 -13 34 13 27 12
-3 28 -6 35 -6z m87 -15 c0 -22 -31 -33 -47 -17 -17 17 -1 44 24 40 15 -2 23
-10 23 -23z m-180 -62 c-24 -17 -45 -17 -45 1 0 8 10 16 23 18 32 6 43 -3 22
-19z m139 21 c9 -3 16 -12 16 -20 0 -18 -60 -19 -61 -1 0 10 -2 10 -6 0 -2 -7
-20 -13 -39 -13 -50 0 -34 28 19 33 23 2 45 4 49 5 3 1 13 -1 22 -4z m76 -20
c0 -8 -10 -14 -25 -14 -27 0 -28 1 -19 23 7 18 44 10 44 -9z m-910 6 c0 -5 -7
-10 -16 -10 -8 0 -12 5 -9 10 3 6 10 10 16 10 5 0 9 -4 9 -10z m40 0 c0 -5 -7
-10 -16 -10 -8 0 -12 5 -9 10 3 6 10 10 16 10 5 0 9 -4 9 -10z m45 0 c-3 -5
-10 -10 -16 -10 -5 0 -9 5 -9 10 0 6 7 10 16 10 8 0 12 -4 9 -10z m40 0 c-3
-5 -10 -10 -16 -10 -5 0 -9 5 -9 10 0 6 7 10 16 10 8 0 12 -4 9 -10z m50 0
c-3 -5 -10 -10 -16 -10 -5 0 -9 5 -9 10 0 6 7 10 16 10 8 0 12 -4 9 -10z m55
0 c0 -5 -7 -10 -15 -10 -8 0 -15 5 -15 10 0 6 7 10 15 10 8 0 15 -4 15 -10z
m60 0 c0 -5 -9 -10 -20 -10 -11 0 -20 5 -20 10 0 6 9 10 20 10 11 0 20 -4 20
-10z m50 0 c0 -5 -9 -10 -21 -10 -11 0 -17 5 -14 10 3 6 13 10 21 10 8 0 14
-4 14 -10z m55 0 c-3 -5 -15 -10 -26 -10 -11 0 -17 5 -14 10 3 6 15 10 26 10
11 0 17 -4 14 -10z m50 0 c-3 -5 -13 -10 -21 -10 -8 0 -14 5 -14 10 0 6 9 10
21 10 11 0 17 -4 14 -10z m55 0 c0 -5 -9 -10 -20 -10 -11 0 -20 5 -20 10 0 6
9 10 20 10 11 0 20 -4 20 -10z m56 -5 c-25 -19 -46 -19 -46 0 0 10 10 15 33
15 30 -1 31 -1 13 -15z m74 0 c-7 -8 -21 -15 -31 -15 -11 0 -19 7 -19 15 0 10
10 15 31 15 27 0 30 -2 19 -15z m338 3 c-3 -7 -13 -13 -23 -13 -10 0 -20 6
-22 13 -3 7 5 12 22 12 17 0 25 -5 23 -12z m65 -3 c-4 -15 -36 -12 -41 3 -3 9
3 13 19 10 13 -1 23 -7 22 -13z m67 -1 c0 -10 -7 -14 -22 -12 -32 5 -35 28 -4
28 17 0 26 -5 26 -16z m48 4 c-3 -7 -11 -13 -18 -13 -7 0 -15 6 -17 13 -3 7 4
12 17 12 13 0 20 -5 18 -12z m50 0 c-3 -7 -11 -13 -18 -13 -7 0 -15 6 -17 13
-3 7 4 12 17 12 13 0 20 -5 18 -12z m50 0 c-3 -7 -11 -13 -18 -13 -7 0 -15 6
-17 13 -3 7 4 12 17 12 13 0 20 -5 18 -12z m40 1 c-2 -6 -8 -10 -13 -10 -5 0
-11 4 -13 10 -2 6 4 11 13 11 9 0 15 -5 13 -11z m57 1 c3 -5 -3 -10 -14 -10
-12 0 -21 5 -21 10 0 6 6 10 14 10 8 0 18 -4 21 -10z m42 -6 c-3 -3 -12 -4
-19 -1 -8 3 -5 6 6 6 11 1 17 -2 13 -5z m50 0 c-3 -3 -12 -4 -19 -1 -8 3 -5 6
6 6 11 1 17 -2 13 -5z m50 0 c-3 -3 -12 -4 -19 -1 -8 3 -5 6 6 6 11 1 17 -2
13 -5z m40 0 c-3 -3 -12 -4 -19 -1 -8 3 -5 6 6 6 11 1 17 -2 13 -5z m40 0 c-3
-3 -12 -4 -19 -1 -8 3 -5 6 6 6 11 1 17 -2 13 -5z m-1447 -60 c0 -31 -2 -35
-15 -24 -16 13 -20 42 -8 53 15 15 23 5 23 -29z m80 17 c14 -27 13 -51 -4 -51
-15 0 -26 21 -26 51 0 25 16 24 30 0z m94 -13 c3 -17 4 -34 1 -37 -12 -11 -40
17 -43 43 -3 20 1 26 16 26 14 0 21 -9 26 -32z m80 3 c16 -31 13 -41 -15 -41
-20 0 -36 41 -24 59 11 18 24 12 39 -18z m85 2 c14 -30 3 -47 -25 -41 -13 2
-20 13 -22 36 -3 26 0 32 16 32 11 0 24 -11 31 -27z m89 -17 c3 -22 0 -26 -22
-26 -19 0 -27 7 -32 24 -8 34 2 47 29 37 14 -5 23 -18 25 -35z m1029 28 c5
-15 -21 -53 -31 -43 -7 7 6 59 15 59 6 0 12 -7 16 -16z m-1537 -3 c0 -17 -12
-41 -21 -41 -5 0 -9 11 -9 25 0 16 6 25 15 25 8 0 15 -4 15 -9z m750 -11 c0
-22 -14 -40 -31 -40 -22 0 -27 45 -6 53 15 5 37 -2 37 -13z m211 -12 c8 -30 3
-38 -23 -38 -26 0 -47 48 -27 61 23 15 42 6 50 -23z m77 -1 c2 -18 -2 -29 -14
-34 -19 -7 -44 20 -44 50 0 14 6 18 28 15 21 -2 28 -9 30 -31z m62 8 c0 -14 1
-28 3 -32 1 -5 -8 -9 -19 -11 -15 -2 -23 4 -28 20 -10 39 -7 48 19 48 20 0 25
-5 25 -25z m77 9 c7 -20 -8 -48 -29 -52 -13 -2 -38 41 -38 64 0 2 14 4 30 4
19 0 33 -6 37 -16z m78 6 c9 -15 -4 -47 -22 -54 -20 -8 -21 -6 -29 32 -6 29
-4 32 19 32 14 0 29 -5 32 -10z m75 -20 c0 -23 -5 -30 -19 -30 -13 0 -20 9
-23 30 -4 26 -1 30 19 30 19 0 23 -5 23 -30z m120 10 c0 -12 -29 -40 -41 -40
-10 0 -12 21 -3 43 5 15 44 12 44 -3z m-849 -17 c-8 -29 -36 -42 -53 -25 -19
19 1 52 32 52 26 0 28 -2 21 -27z m74 2 c0 -14 -8 -21 -27 -23 -24 -3 -28 0
-28 23 0 23 4 26 28 23 19 -2 27 -9 27 -23z m135 -1 c0 -21 -4 -25 -22 -22
-15 2 -24 11 -26 26 -3 18 1 22 22 22 21 0 26 -5 26 -26z m80 1 c0 -21 -5 -25
-29 -25 -23 0 -30 5 -33 25 -5 23 -2 25 28 25 30 0 34 -3 34 -25z"/>
<path d="M4295 5518 c-11 -6 -33 -22 -48 -35 -24 -19 -26 -24 -12 -29 10 -4
26 3 44 20 32 31 61 33 86 6 28 -31 47 -27 30 7 -23 43 -58 55 -100 31z"/>
<path d="M4657 5492 c-27 -28 -35 -52 -17 -52 5 0 17 11 26 25 18 28 49 32 78
10 38 -29 51 -16 16 15 -44 37 -69 37 -103 2z"/>
<path d="M4460 5044 c0 -25 30 -41 42 -22 11 17 10 38 -1 38 -5 0 -12 -6 -14
-12 -4 -10 -8 -9 -16 2 -9 13 -11 11 -11 -6z"/>
<path d="M4653 4965 c-23 -47 -18 -58 11 -26 10 11 16 31 14 45 -3 24 -5 23
-25 -19z"/>
<path d="M4371 4969 c0 -15 6 -32 14 -39 16 -13 21 0 6 16 -5 5 -11 18 -14 29
-4 16 -5 14 -6 -6z"/>
<path d="M4401 2555 c-56 -18 -138 -74 -174 -120 -16 -20 -40 -61 -55 -93 -36
-76 -37 -198 -3 -284 31 -81 106 -160 189 -200 60 -29 76 -32 157 -33 81 0 97
3 157 32 82 39 151 106 186 181 24 50 27 69 27 162 0 100 -1 108 -34 168 -41
76 -104 135 -179 170 -69 32 -199 41 -271 17z m115 -25 c12 0 25 6 28 13 3 6
3 -13 0 -43 -3 -30 -9 -93 -14 -139 -5 -46 -11 -85 -13 -87 -2 -2 -11 49 -20
114 -9 64 -20 128 -23 142 -6 21 -4 23 7 13 7 -7 23 -13 35 -13z m-35 -126
c10 -70 17 -129 15 -131 -2 -2 -15 24 -29 59 -46 113 -78 181 -83 175 -3 -3
17 -58 45 -123 48 -112 50 -118 33 -134 -16 -15 -26 -13 -145 34 -97 39 -122
52 -107 58 11 4 21 13 21 20 1 7 2 18 4 23 1 6 3 15 3 22 1 6 12 13 24 15 13
2 24 12 28 26 4 20 13 12 69 -63 67 -88 124 -149 103 -110 -6 11 -42 59 -81
107 -39 48 -71 90 -71 93 0 3 9 5 19 5 11 0 27 10 35 21 11 16 21 20 40 15 16
-4 30 -1 38 8 7 8 15 12 17 10 2 -1 12 -60 22 -130z m99 125 c0 -7 12 -10 30
-7 17 3 30 4 30 4 0 -1 -22 -56 -49 -124 -46 -117 -71 -165 -58 -113 3 14 12
75 18 138 7 62 17 113 21 113 4 0 8 -5 8 -11z m119 -46 c18 4 33 -8 44 -36 3
-9 18 -22 32 -27 18 -7 25 -17 25 -35 0 -17 7 -28 21 -33 16 -6 -5 -19 -107
-62 -70 -30 -122 -56 -115 -58 6 -2 57 17 114 43 56 26 111 49 122 53 18 5 18
4 6 -11 -11 -14 -11 -20 2 -40 l15 -23 -132 -19 c-72 -11 -118 -21 -103 -23
16 -2 74 4 128 12 125 20 122 20 107 -4 -10 -16 -10 -24 1 -41 11 -19 11 -21
-2 -16 -8 3 -69 11 -135 18 l-120 12 -16 33 -15 34 76 100 c42 55 74 103 71
106 -3 3 -41 -42 -83 -101 -43 -58 -80 -104 -82 -102 -2 2 9 33 25 68 16 35
39 92 51 127 23 60 24 62 39 41 8 -11 22 -19 31 -16z m-384 -212 c107 -43 158
-71 105 -57 -14 3 -76 11 -137 18 -107 11 -112 13 -97 30 10 10 14 26 11 38
-3 12 -2 20 2 18 4 -2 56 -23 116 -47z m243 -33 c30 -30 3 -98 -39 -98 -23 0
-59 34 -59 57 0 42 68 71 98 41z m-250 -24 c70 -8 128 -17 130 -19 2 -2 -23
-6 -55 -10 -32 -4 -92 -13 -133 -20 -41 -7 -77 -11 -79 -9 -2 2 2 11 9 20 11
12 11 20 2 35 -7 10 -9 19 -6 19 3 0 63 -7 132 -16z m112 -51 c-152 -64 -220
-96 -217 -100 5 -5 142 49 199 78 22 11 42 18 44 16 3 -3 -40 -40 -95 -83 -55
-43 -98 -80 -96 -82 4 -4 56 33 182 132 42 32 50 6 20 -61 -37 -84 -70 -174
-64 -179 4 -4 77 165 92 214 15 50 15 10 0 -109 -8 -68 -15 -127 -15 -132 0
-5 -7 -1 -16 8 -11 10 -25 14 -40 11 -17 -5 -29 0 -41 14 -10 11 -28 20 -40
20 -16 0 -27 8 -33 25 -5 14 -18 29 -27 32 -29 11 -40 26 -35 45 3 11 -3 20
-14 25 -27 9 -34 24 -27 52 4 17 0 28 -12 37 -21 15 -23 15 130 37 132 19 148
19 105 0z m288 6 c160 -17 169 -19 149 -31 -12 -6 -18 -20 -17 -36 3 -44 1
-52 -14 -52 -16 0 -31 -34 -22 -49 3 -5 -8 -14 -24 -21 -17 -7 -30 -16 -30
-21 0 -31 -17 -50 -37 -42 -9 3 -25 -5 -39 -20 -16 -17 -30 -24 -44 -20 -12 3
-28 -1 -39 -11 -17 -16 -19 -11 -35 111 -9 70 -19 129 -21 132 -10 9 -5 -66
10 -154 18 -113 19 -107 -4 -93 -15 9 -23 9 -35 -2 -24 -19 -27 -9 -17 46 5
27 13 86 16 132 7 70 10 82 26 82 10 0 27 10 38 21 l20 22 117 -47 c64 -26
121 -45 127 -43 7 2 -47 27 -118 55 -72 28 -124 52 -117 52 7 0 57 -5 110 -11z"/>
<path d="M4254 2391 c11 -18 177 -141 190 -141 13 1 7 5 -94 81 -90 66 -106
77 -96 60z"/>
<path d="M4677 2333 c-53 -42 -94 -79 -92 -81 3 -3 37 20 77 52 109 84 134
106 123 106 -6 0 -54 -35 -108 -77z"/>
<path d="M4490 2215 c-18 -22 -1 -50 31 -50 20 0 24 5 24 30 0 23 -5 31 -21
33 -11 2 -27 -4 -34 -13z"/>
<path d="M4419 2078 c-59 -75 -115 -158 -106 -158 5 0 116 143 142 183 29 45
8 31 -36 -25z"/>
<path d="M4580 2145 c0 -5 140 -112 185 -141 60 -39 12 7 -79 76 -88 66 -106
77 -106 65z"/>
<path d="M4585 2103 c29 -44 113 -149 132 -164 22 -17 21 -16 -71 104 -65 84
-97 115 -61 60z"/>
<path d="M4550 2111 c0 -23 98 -238 100 -217 0 11 -91 226 -96 226 -2 0 -4 -4
-4 -9z"/>
<path d="M3915 2500 c-3 -5 1 -10 10 -10 9 0 13 5 10 10 -3 6 -8 10 -10 10 -2
0 -7 -4 -10 -10z"/>
<path d="M3950 2500 c0 -5 5 -10 11 -10 5 0 7 5 4 10 -3 6 -8 10 -11 10 -2 0
-4 -4 -4 -10z"/>
<path d="M3980 2500 c0 -5 5 -10 10 -10 6 0 10 5 10 10 0 6 -4 10 -10 10 -5 0
-10 -4 -10 -10z"/>
<path d="M4010 2500 c0 -5 5 -10 10 -10 6 0 10 5 10 10 0 6 -4 10 -10 10 -5 0
-10 -4 -10 -10z"/>
<path d="M4060 2500 c0 -5 5 -10 10 -10 6 0 10 5 10 10 0 6 -4 10 -10 10 -5 0
-10 -4 -10 -10z"/>
<path d="M3720 2450 c0 -5 5 -10 10 -10 6 0 10 5 10 10 0 6 -4 10 -10 10 -5 0
-10 -4 -10 -10z"/>
<path d="M3760 2450 c0 -5 5 -10 10 -10 6 0 10 5 10 10 0 6 -4 10 -10 10 -5 0
-10 -4 -10 -10z"/>
<path d="M3800 2450 c0 -5 5 -10 10 -10 6 0 10 5 10 10 0 6 -4 10 -10 10 -5 0
-10 -4 -10 -10z"/>
<path d="M3835 2450 c-3 -5 1 -10 10 -10 9 0 13 5 10 10 -3 6 -8 10 -10 10 -2
0 -7 -4 -10 -10z"/>
<path d="M3880 2450 c0 -5 5 -10 10 -10 6 0 10 5 10 10 0 6 -4 10 -10 10 -5 0
-10 -4 -10 -10z"/>
<path d="M3915 2450 c4 -6 11 -8 16 -5 14 9 11 15 -7 15 -8 0 -12 -5 -9 -10z"/>
<path d="M3950 2449 c0 -5 5 -7 10 -4 6 3 10 8 10 11 0 2 -4 4 -10 4 -5 0 -10
-5 -10 -11z"/>
<path d="M3980 2450 c0 -5 5 -10 10 -10 6 0 10 5 10 10 0 6 -4 10 -10 10 -5 0
-10 -4 -10 -10z"/>
<path d="M3835 2400 c-3 -5 1 -10 10 -10 9 0 13 5 10 10 -3 6 -8 10 -10 10 -2
0 -7 -4 -10 -10z"/>
<path d="M3880 2400 c0 -5 5 -10 10 -10 6 0 10 5 10 10 0 6 -4 10 -10 10 -5 0
-10 -4 -10 -10z"/>
<path d="M3915 2400 c-3 -5 1 -10 10 -10 9 0 13 5 10 10 -3 6 -8 10 -10 10 -2
0 -7 -4 -10 -10z"/>
<path d="M3950 2400 c0 -5 5 -10 10 -10 6 0 10 5 10 10 0 6 -4 10 -10 10 -5 0
-10 -4 -10 -10z"/>
<path d="M3768 2393 c7 -3 16 -2 19 1 4 3 -2 6 -13 5 -11 0 -14 -3 -6 -6z"/>
<path d="M3838 2333 c7 -3 16 -2 19 1 4 3 -2 6 -13 5 -11 0 -14 -3 -6 -6z"/>
<path d="M3918 2333 c7 -3 16 -2 19 1 4 3 -2 6 -13 5 -11 0 -14 -3 -6 -6z"/>
<path d="M3770 2290 c0 -5 5 -10 11 -10 5 0 7 5 4 10 -3 6 -8 10 -11 10 -2 0
-4 -4 -4 -10z"/>
<path d="M3804 2288 c-3 -4 9 -8 27 -8 18 0 29 3 25 7 -10 10 -46 11 -52 1z"/>
<path d="M3880 2290 c0 -5 5 -10 10 -10 6 0 10 5 10 10 0 6 -4 10 -10 10 -5 0
-10 -4 -10 -10z"/>
<path d="M3918 2283 c7 -3 16 -2 19 1 4 3 -2 6 -13 5 -11 0 -14 -3 -6 -6z"/>
<path d="M3918 2253 c7 -3 16 -2 19 1 4 3 -2 6 -13 5 -11 0 -14 -3 -6 -6z"/>
<path d="M3960 2249 c0 -5 5 -7 10 -4 6 3 10 8 10 11 0 2 -4 4 -10 4 -5 0 -10
-5 -10 -11z"/>
<path d="M5067 2392 c-18 -20 -23 -37 -8 -28 5 4 12 0 14 -6 4 -10 8 -9 17 2
9 12 10 11 5 -7 -7 -26 7 -30 25 -8 10 12 10 19 2 27 -8 8 -9 15 -1 25 18 21
-35 16 -54 -5z"/>
<path d="M5225 2270 c-3 -5 -1 -10 4 -10 6 0 11 5 11 10 0 6 -2 10 -4 10 -3 0
-8 -4 -11 -10z"/>
<path d="M4980 2020 c0 -5 5 -10 10 -10 6 0 10 5 10 10 0 6 -4 10 -10 10 -5 0
-10 -4 -10 -10z"/>
<path d="M4935 1980 c-3 -5 1 -10 10 -10 9 0 13 5 10 10 -3 6 -8 10 -10 10 -2
0 -7 -4 -10 -10z"/>
<path d="M4975 1980 c-3 -5 1 -10 10 -10 9 0 13 5 10 10 -3 6 -8 10 -10 10 -2
0 -7 -4 -10 -10z"/>
<path d="M5015 1980 c-3 -5 1 -10 10 -10 9 0 13 5 10 10 -3 6 -8 10 -10 10 -2
0 -7 -4 -10 -10z"/>
<path d="M4895 1930 c4 -6 11 -8 16 -5 14 9 11 15 -7 15 -8 0 -12 -5 -9 -10z"/>
<path d="M4935 1930 c4 -6 11 -8 16 -5 14 9 11 15 -7 15 -8 0 -12 -5 -9 -10z"/>
<path d="M4970 1930 c0 -5 5 -10 10 -10 6 0 10 5 10 10 0 6 -4 10 -10 10 -5 0
-10 -4 -10 -10z"/>
<path d="M4930 1880 c0 -5 5 -10 10 -10 6 0 10 5 10 10 0 6 -4 10 -10 10 -5 0
-10 -4 -10 -10z"/>
<path d="M4965 1880 c3 -5 10 -10 16 -10 5 0 9 5 9 10 0 6 -7 10 -16 10 -8 0
-12 -4 -9 -10z"/>
<path d="M4895 1870 c4 -6 11 -8 16 -5 14 9 11 15 -7 15 -8 0 -12 -5 -9 -10z"/>
<path d="M4815 1830 c-3 -5 -1 -10 4 -10 6 0 11 5 11 10 0 6 -2 10 -4 10 -3 0
-8 -4 -11 -10z"/>
<path d="M4855 1830 c3 -5 10 -10 16 -10 5 0 9 5 9 10 0 6 -7 10 -16 10 -8 0
-12 -4 -9 -10z"/>
<path d="M4890 1830 c0 -5 5 -10 10 -10 6 0 10 5 10 10 0 6 -4 10 -10 10 -5 0
-10 -4 -10 -10z"/>
<path d="M4935 1830 c4 -6 11 -8 16 -5 14 9 11 15 -7 15 -8 0 -12 -5 -9 -10z"/>
<path d="M3511 2464 c0 -11 3 -14 6 -6 3 7 2 16 -1 19 -3 4 -6 -2 -5 -13z"/>
<path d="M3532 2450 c0 -14 2 -19 5 -12 2 6 2 18 0 25 -3 6 -5 1 -5 -13z"/>
<path d="M3555 2439 c-4 -6 -5 -12 -2 -15 2 -3 7 2 10 11 7 17 1 20 -8 4z"/>
<path d="M3577 2404 c-4 -4 -7 -17 -7 -28 1 -19 1 -20 11 -3 11 19 8 43 -4 31z"/>
<path d="M3602 2368 c-7 -7 -12 -19 -12 -27 0 -11 5 -8 16 7 18 25 15 39 -4
20z"/>
<path d="M3620 2325 c-7 -9 -11 -18 -8 -20 3 -3 11 1 18 10 7 9 11 18 8 20 -3
3 -11 -1 -18 -10z"/>
<path d="M3632 2290 c-18 -29 -15 -48 4 -22 8 12 14 27 12 32 -2 6 -9 1 -16
-10z"/>
<path d="M3648 2264 c-5 -4 -8 -19 -8 -33 0 -18 3 -22 11 -14 6 6 9 21 7 33
-1 12 -6 18 -10 14z"/>
<path d="M3665 2219 c-4 -12 -2 -26 4 -32 8 -8 11 -2 11 21 0 37 -6 41 -15 11z"/>
<path d="M3710 2190 c0 -5 5 -10 11 -10 5 0 7 5 4 10 -3 6 -8 10 -11 10 -2 0
-4 -4 -4 -10z"/>
<path d="M4910 2490 c0 -5 5 -10 10 -10 6 0 10 5 10 10 0 6 -4 10 -10 10 -5 0
-10 -4 -10 -10z"/>
<path d="M4945 2490 c4 -6 11 -8 16 -5 14 9 11 15 -7 15 -8 0 -12 -5 -9 -10z"/>
<path d="M4940 2450 c0 -5 7 -10 15 -10 8 0 15 5 15 10 0 6 -7 10 -15 10 -8 0
-15 -4 -15 -10z"/>
<path d="M4950 2410 c0 -5 5 -10 10 -10 6 0 10 5 10 10 0 6 -4 10 -10 10 -5 0
-10 -4 -10 -10z"/>
<path d="M4956 2361 c-4 -5 -2 -12 3 -15 5 -4 12 -2 15 3 4 5 2 12 -3 15 -5 4
-12 2 -15 -3z"/>
<path d="M5200 2480 c0 -5 5 -10 10 -10 6 0 10 5 10 10 0 6 -4 10 -10 10 -5 0
-10 -4 -10 -10z"/>
<path d="M5230 2440 c0 -5 5 -10 10 -10 6 0 10 5 10 10 0 6 -4 10 -10 10 -5 0
-10 -4 -10 -10z"/>
<path d="M5265 2440 c-3 -5 1 -10 9 -10 9 0 16 5 16 10 0 6 -4 10 -9 10 -6 0
-13 -4 -16 -10z"/>
<path d="M5310 2430 c0 -5 5 -10 10 -10 6 0 10 5 10 10 0 6 -4 10 -10 10 -5 0
-10 -4 -10 -10z"/>
<path d="M5270 2390 c0 -5 5 -10 10 -10 6 0 10 5 10 10 0 6 -4 10 -10 10 -5 0
-10 -4 -10 -10z"/>
<path d="M5310 2380 c0 -5 5 -10 10 -10 6 0 10 5 10 10 0 6 -4 10 -10 10 -5 0
-10 -4 -10 -10z"/>
<path d="M5350 2380 c0 -5 7 -10 15 -10 8 0 15 5 15 10 0 6 -7 10 -15 10 -8 0
-15 -4 -15 -10z"/>
<path d="M5360 2330 c0 -5 5 -10 10 -10 6 0 10 5 10 10 0 6 -4 10 -10 10 -5 0
-10 -4 -10 -10z"/>
<path d="M5360 2295 c0 -8 5 -15 10 -15 6 0 10 7 10 15 0 8 -4 15 -10 15 -5 0
-10 -7 -10 -15z"/>
<path d="M5360 2260 c0 -5 5 -10 10 -10 6 0 10 5 10 10 0 6 -4 10 -10 10 -5 0
-10 -4 -10 -10z"/>
<path d="M3980 2120 c0 -5 5 -10 10 -10 6 0 10 5 10 10 0 6 -4 10 -10 10 -5 0
-10 -4 -10 -10z"/>
<path d="M4020 2120 c0 -5 5 -10 10 -10 6 0 10 5 10 10 0 6 -4 10 -10 10 -5 0
-10 -4 -10 -10z"/>
<path d="M4020 2090 c0 -5 5 -10 10 -10 6 0 10 5 10 10 0 6 -4 10 -10 10 -5 0
-10 -4 -10 -10z"/>
<path d="M4025 2030 c3 -5 10 -10 16 -10 5 0 9 5 9 10 0 6 -7 10 -16 10 -8 0
-12 -4 -9 -10z"/>
<path d="M4115 1930 c4 -6 11 -8 16 -5 14 9 11 15 -7 15 -8 0 -12 -5 -9 -10z"/>
<path d="M3610 1980 c0 -5 7 -10 16 -10 8 0 12 5 9 10 -3 6 -10 10 -16 10 -5
0 -9 -4 -9 -10z"/>
<path d="M3650 1980 c0 -5 7 -10 16 -10 8 0 12 5 9 10 -3 6 -10 10 -16 10 -5
0 -9 -4 -9 -10z"/>
<path d="M3540 1940 c0 -5 5 -10 10 -10 6 0 10 5 10 10 0 6 -4 10 -10 10 -5 0
-10 -4 -10 -10z"/>
<path d="M3580 1940 c0 -5 5 -10 10 -10 6 0 10 5 10 10 0 6 -4 10 -10 10 -5 0
-10 -4 -10 -10z"/>
<path d="M3615 1940 c-3 -5 1 -10 10 -10 9 0 13 5 10 10 -3 6 -8 10 -10 10 -2
0 -7 -4 -10 -10z"/>
<path d="M3660 1940 c0 -5 5 -10 10 -10 6 0 10 5 10 10 0 6 -4 10 -10 10 -5 0
-10 -4 -10 -10z"/>
<path d="M3690 1930 c0 -5 5 -10 10 -10 6 0 10 5 10 10 0 6 -4 10 -10 10 -5 0
-10 -4 -10 -10z"/>
<path d="M3730 1930 c0 -5 5 -10 10 -10 6 0 10 5 10 10 0 6 -4 10 -10 10 -5 0
-10 -4 -10 -10z"/>
<path d="M3760 1930 c0 -5 5 -10 10 -10 6 0 10 5 10 10 0 6 -4 10 -10 10 -5 0
-10 -4 -10 -10z"/>
<path d="M3795 1930 c-3 -5 1 -10 9 -10 9 0 16 5 16 10 0 6 -4 10 -9 10 -6 0
-13 -4 -16 -10z"/>
<path d="M3830 1930 c0 -5 5 -10 10 -10 6 0 10 5 10 10 0 6 -4 10 -10 10 -5 0
-10 -4 -10 -10z"/>
<path d="M3580 1890 c0 -5 5 -10 10 -10 6 0 10 5 10 10 0 6 -4 10 -10 10 -5 0
-10 -4 -10 -10z"/>
<path d="M3620 1890 c0 -5 5 -10 10 -10 6 0 10 5 10 10 0 6 -4 10 -10 10 -5 0
-10 -4 -10 -10z"/>
<path d="M3655 1880 c4 -6 11 -8 16 -5 14 9 11 15 -7 15 -8 0 -12 -5 -9 -10z"/>
<path d="M3690 1880 c0 -5 5 -10 10 -10 6 0 10 5 10 10 0 6 -4 10 -10 10 -5 0
-10 -4 -10 -10z"/>
<path d="M3730 1880 c0 -5 5 -10 10 -10 6 0 10 5 10 10 0 6 -4 10 -10 10 -5 0
-10 -4 -10 -10z"/>
<path d="M3760 1880 c0 -5 4 -10 9 -10 6 0 13 5 16 10 3 6 -1 10 -9 10 -9 0
-16 -4 -16 -10z"/>
<path d="M3800 1880 c0 -5 5 -10 10 -10 6 0 10 5 10 10 0 6 -4 10 -10 10 -5 0
-10 -4 -10 -10z"/>
<path d="M3838 1883 c7 -3 16 -2 19 1 4 3 -2 6 -13 5 -11 0 -14 -3 -6 -6z"/>
<path d="M3870 1880 c0 -5 5 -10 10 -10 6 0 10 5 10 10 0 6 -4 10 -10 10 -5 0
-10 -4 -10 -10z"/>
<path d="M3910 1880 c0 -5 4 -10 9 -10 6 0 13 5 16 10 3 6 -1 10 -9 10 -9 0
-16 -4 -16 -10z"/>
<path d="M3620 1840 c0 -5 7 -10 15 -10 8 0 15 5 15 10 0 6 -7 10 -15 10 -8 0
-15 -4 -15 -10z"/>
<path d="M3660 1840 c0 -5 5 -10 10 -10 6 0 10 5 10 10 0 6 -4 10 -10 10 -5 0
-10 -4 -10 -10z"/>
<path d="M3690 1840 c0 -5 7 -10 15 -10 8 0 15 5 15 10 0 6 -7 10 -15 10 -8 0
-15 -4 -15 -10z"/>
<path d="M3730 1840 c0 -5 5 -10 10 -10 6 0 10 5 10 10 0 6 -4 10 -10 10 -5 0
-10 -4 -10 -10z"/>
<path d="M3760 1840 c0 -5 7 -10 16 -10 8 0 12 5 9 10 -3 6 -10 10 -16 10 -5
0 -9 -4 -9 -10z"/>
<path d="M3800 1840 c0 -5 5 -10 10 -10 6 0 10 5 10 10 0 6 -4 10 -10 10 -5 0
-10 -4 -10 -10z"/>
<path d="M3830 1840 c0 -5 5 -10 10 -10 6 0 10 5 10 10 0 6 -4 10 -10 10 -5 0
-10 -4 -10 -10z"/>
<path d="M3870 1840 c0 -5 5 -10 10 -10 6 0 10 5 10 10 0 6 -4 10 -10 10 -5 0
-10 -4 -10 -10z"/>
<path d="M3910 1840 c0 -5 7 -10 15 -10 8 0 15 5 15 10 0 6 -7 10 -15 10 -8 0
-15 -4 -15 -10z"/>
<path d="M5266 1962 c-3 -6 -1 -14 5 -17 15 -10 25 3 12 16 -7 7 -13 7 -17 1z"/>
<path d="M5250 1910 c0 -5 7 -10 15 -10 8 0 15 5 15 10 0 6 -7 10 -15 10 -8 0
-15 -4 -15 -10z"/>
<path d="M4150 1365 c14 -15 35 -25 51 -25 19 0 39 -12 63 -37 20 -21 36 -32
36 -25 0 6 -22 35 -48 62 -42 43 -54 50 -87 50 l-38 0 23 -25z"/>
<path d="M5382 1368 c10 -16 27 -24 51 -26 28 -2 44 -12 66 -40 17 -20 33 -33
37 -29 8 8 -60 88 -89 104 -12 7 -35 12 -51 13 -27 0 -28 -1 -14 -22z"/>
<path d="M3370 1240 c0 -16 7 -20 38 -20 35 0 38 -2 36 -27 -2 -54 -3 -56 -30
-50 -29 5 -39 -10 -31 -46 8 -31 114 -157 132 -157 25 0 17 17 -26 53 -34 28
-41 39 -36 58 14 49 22 54 62 35 20 -10 48 -16 61 -13 23 4 24 1 24 -42 0 -46
23 -96 40 -86 5 3 7 66 5 140 l-4 136 137 -3 c126 -3 137 -5 140 -22 7 -32
-25 -46 -108 -46 -94 0 -120 -15 -120 -68 1 -39 39 -100 80 -129 38 -27 35 -3
-3 32 -29 27 -37 41 -37 69 0 42 20 56 80 56 35 0 46 -6 80 -41 36 -38 42 -41
84 -37 44 3 46 2 46 -23 0 -14 11 -36 25 -49 l25 -23 0 141 0 142 45 0 45 0 0
-54 c0 -48 -2 -55 -22 -58 -32 -4 -32 -21 -2 -57 30 -36 69 -40 69 -6 0 17 8
20 53 23 l52 3 0 -49 c0 -36 5 -54 20 -67 20 -18 20 -17 20 123 l0 142 105 0
105 0 0 -40 c0 -45 -1 -46 -36 -24 -26 17 -88 14 -107 -5 -19 -19 -9 -73 20
-103 25 -27 33 -29 76 -25 46 4 47 3 47 -24 0 -15 8 -35 18 -45 16 -17 17 -11
20 124 2 135 3 142 23 142 14 0 19 5 17 18 -3 16 -43 17 -636 20 -627 2 -632
2 -632 -18z m230 -69 c0 -48 -1 -49 -35 -55 -61 -12 -75 -2 -75 55 l0 49 55 0
55 0 0 -49z m420 -10 c0 -51 -3 -62 -22 -75 -27 -19 -79 -21 -96 -4 -16 16
-15 28 2 28 30 0 44 27 36 69 l-7 41 43 0 44 0 0 -59z m290 4 l0 -55 -55 0
-55 0 0 55 0 55 55 0 55 0 0 -55z m247 -52 c10 -24 -32 -53 -78 -53 -32 0 -39
4 -39 19 0 31 28 51 71 51 28 0 42 -5 46 -17z"/>
<path d="M4760 1240 c0 -19 7 -20 125 -20 l125 0 0 -35 0 -35 -76 0 -76 0 27
-35 c29 -39 30 -68 1 -73 -30 -6 -65 19 -83 60 -16 36 -33 50 -33 28 0 -23 41
-89 70 -114 64 -54 132 -17 96 52 -14 27 -14 31 0 36 9 3 29 6 45 6 l29 0 0
-65 c0 -54 4 -68 23 -85 l22 -21 3 140 3 141 54 0 c30 0 55 -2 55 -4 0 -2 3
-11 6 -19 7 -20 -22 -47 -52 -47 -31 0 -30 -8 6 -58 37 -52 63 -66 111 -59 37
5 39 4 39 -22 0 -16 10 -37 25 -51 l25 -23 0 141 0 142 110 0 110 0 0 -35 0
-35 -63 0 c-79 0 -107 -17 -107 -67 0 -54 85 -161 109 -138 3 3 -11 21 -32 40
-67 61 -43 125 46 125 l47 0 0 -68 c0 -56 4 -72 20 -87 20 -18 20 -17 20 123
0 120 2 142 15 142 8 0 15 9 15 20 0 20 -7 20 -430 20 -423 0 -430 0 -430 -20z
m520 -79 c0 -51 -3 -62 -22 -75 -35 -24 -108 -19 -108 8 0 6 10 16 23 21 18 8
22 18 21 58 l0 47 43 0 43 0 0 -59z"/>
<path d="M2550 422 c-102 -51 -108 -210 -9 -264 44 -25 128 -20 167 9 22 16
28 29 30 72 l3 51 -65 0 c-52 0 -66 -3 -66 -15 0 -11 12 -15 45 -15 43 0 45
-1 45 -30 0 -36 -25 -52 -88 -53 -39 0 -49 4 -75 33 -27 30 -29 38 -25 88 6
71 37 102 103 102 36 0 47 -5 67 -30 16 -21 27 -27 37 -21 35 22 -50 91 -111
91 -13 0 -39 -8 -58 -18z"/>
<path d="M5050 420 c-11 -11 -20 -31 -20 -45 0 -16 -6 -25 -16 -25 -9 0 -14
-6 -11 -12 2 -7 10 -12 16 -10 7 1 11 -28 11 -93 0 -88 1 -95 20 -95 19 0 20
7 20 96 0 91 1 96 20 91 13 -3 20 0 20 9 0 8 -9 14 -20 14 -15 0 -20 7 -20 25
0 20 5 25 25 25 18 0 25 5 25 20 0 15 -7 20 -25 20 -14 0 -34 -9 -45 -20z"/>
<path d="M5337 430 c-41 -12 -58 -29 -80 -79 -61 -138 69 -256 211 -191 l42
19 0 56 0 55 -60 0 c-47 0 -60 -3 -60 -15 0 -11 11 -15 41 -15 39 0 40 -1 37
-32 -3 -29 -8 -35 -45 -46 -38 -12 -47 -12 -80 5 -67 33 -82 135 -28 189 41
41 126 31 151 -18 6 -12 14 -14 24 -8 22 14 -4 58 -45 76 -38 15 -66 17 -108
4z"/>
<path d="M5780 410 c0 -13 7 -20 20 -20 13 0 20 7 20 20 0 13 -7 20 -20 20
-13 0 -20 -7 -20 -20z"/>
<path d="M4593 413 c-7 -2 -13 -18 -13 -34 0 -16 -4 -29 -10 -29 -5 0 -10 -7
-10 -16 0 -8 4 -13 9 -10 5 3 11 -32 12 -79 4 -91 12 -105 57 -105 17 0 23 5
20 17 -2 10 -10 18 -18 18 -12 0 -16 17 -18 77 -2 67 -1 77 13 72 10 -4 15 0
15 10 0 9 -7 16 -15 16 -10 0 -15 11 -15 35 0 35 -3 38 -27 28z"/>
<path d="M6473 413 c-7 -2 -13 -18 -13 -34 0 -16 -4 -29 -10 -29 -5 0 -10 -7
-10 -16 0 -8 5 -12 10 -9 6 4 10 -23 10 -74 0 -87 12 -111 56 -111 30 0 33 30
4 37 -18 5 -20 14 -20 80 0 63 2 74 15 69 9 -3 15 0 15 9 0 8 -7 15 -15 15
-10 0 -15 11 -15 35 0 35 -3 38 -27 28z"/>
<path d="M2835 351 c-36 -15 -56 -47 -58 -94 -2 -52 16 -90 50 -106 66 -30
130 4 140 76 12 92 -55 155 -132 124z m75 -41 c41 -41 16 -140 -36 -140 -58 0
-85 81 -43 134 24 31 52 33 79 6z"/>
<path d="M3249 345 c-57 -31 -65 -139 -14 -182 37 -32 98 -31 130 2 14 13 25
29 25 35 0 18 -35 11 -48 -10 -17 -28 -66 -27 -86 2 -29 42 -22 48 59 48 l75
0 0 29 c0 65 -83 109 -141 76z m83 -32 c33 -30 23 -43 -37 -43 -59 0 -67 8
-35 40 24 24 47 25 72 3z"/>
<path d="M3486 344 c-9 -8 -16 -11 -16 -5 0 6 -8 11 -17 11 -16 0 -18 -10 -15
-105 3 -83 6 -105 18 -105 11 0 14 15 14 64 0 87 13 120 45 114 27 -6 44 20
23 34 -20 12 -35 10 -52 -8z"/>
<path d="M3622 344 c-12 -8 -22 -10 -22 -5 0 6 -7 11 -15 11 -12 0 -15 -18
-15 -106 0 -95 2 -105 18 -102 14 3 17 16 20 81 3 69 5 79 27 93 18 12 28 13
44 5 17 -10 21 -23 23 -94 3 -69 6 -82 21 -85 15 -3 17 6 17 85 0 94 -3 104
-37 122 -30 15 -54 14 -81 -5z"/>
<path d="M3852 344 c-12 -8 -22 -10 -22 -5 0 6 -9 11 -20 11 -20 0 -21 -5 -18
-102 3 -89 5 -103 21 -106 15 -3 17 6 17 72 0 63 4 80 20 96 24 24 34 25 54 4
12 -11 16 -36 16 -95 0 -64 3 -79 15 -79 12 0 15 14 15 64 0 77 11 112 40 121
39 12 50 -10 50 -101 0 -77 2 -84 20 -84 18 0 20 7 20 84 0 69 -4 88 -21 110
-23 29 -54 33 -87 10 -20 -14 -24 -14 -44 0 -12 9 -29 16 -38 16 -9 0 -26 -7
-38 -16z"/>
<path d="M4168 344 c-36 -19 -48 -43 -48 -99 0 -38 5 -52 29 -76 45 -45 126
-36 150 17 9 20 8 24 -7 24 -10 0 -25 -9 -35 -20 -31 -36 -82 -20 -100 33 -6
15 2 17 73 17 73 0 80 2 80 20 0 33 -23 71 -51 86 -35 18 -57 17 -91 -2z m80
-30 c40 -28 28 -44 -33 -44 -41 0 -55 4 -55 14 0 16 37 46 55 46 6 0 21 -7 33
-16z"/>
<path d="M4415 346 c-23 -18 -39 -21 -30 -6 3 6 -3 10 -14 10 -20 0 -21 -6
-21 -105 0 -98 1 -105 20 -105 18 0 20 7 20 80 0 73 2 81 25 96 30 19 61 11
69 -19 3 -12 6 -52 6 -89 0 -54 3 -68 15 -68 12 0 15 16 15 88 0 55 -5 95 -12
105 -19 24 -69 31 -93 13z"/>
<path d="M4844 351 c-35 -15 -54 -51 -54 -104 0 -63 39 -107 95 -107 57 0 95
44 95 109 0 37 -6 56 -22 76 -25 28 -79 40 -114 26z m73 -36 c27 -19 37 -59
23 -101 -12 -36 -37 -49 -75 -40 -28 7 -49 61 -39 100 6 26 38 56 59 56 6 0
20 -7 32 -15z"/>
<path d="M5913 350 c-19 -8 -43 -38 -43 -54 0 -15 37 -4 48 14 15 24 54 26 77
4 25 -25 14 -37 -50 -49 -82 -17 -109 -61 -65 -105 24 -24 76 -26 107 -5 19
13 22 13 27 0 3 -8 12 -15 19 -15 12 0 14 17 10 93 -3 53 -11 98 -18 105 -16
17 -83 25 -112 12z m97 -120 c0 -33 -37 -62 -73 -58 -27 2 -32 7 -32 28 0 22
6 26 50 36 28 7 51 13 53 13 1 1 2 -8 2 -19z"/>
<path d="M6147 343 c-11 -11 -17 -13 -17 -5 0 7 -7 12 -15 12 -12 0 -15 -18
-15 -105 0 -87 3 -105 15 -105 12 0 15 14 15 64 0 87 13 120 45 114 27 -6 44
20 23 34 -20 12 -32 10 -51 -9z"/>
<path d="M6280 353 c-24 -9 -50 -35 -50 -50 0 -19 23 -16 43 7 28 33 81 24 89
-14 2 -16 -7 -21 -56 -31 -62 -13 -86 -32 -86 -71 0 -46 81 -71 127 -39 19 13
22 13 27 0 3 -8 11 -15 18 -15 18 0 12 179 -6 198 -15 15 -83 25 -106 15z m84
-130 c-9 -37 -32 -55 -69 -51 -24 2 -30 8 -30 28 0 20 7 26 45 36 63 17 61 17
54 -13z"/>
<path d="M3017 283 c14 -38 31 -84 38 -103 15 -45 41 -51 56 -13 64 165 69
183 50 183 -14 0 -25 -19 -47 -80 l-28 -81 -29 81 c-22 61 -33 80 -47 80 -18
0 -18 -4 7 -67z"/>
<path d="M5560 265 c0 -72 3 -88 20 -105 24 -24 67 -26 98 -4 20 14 22 14 22
0 0 -9 7 -16 15 -16 12 0 15 18 15 105 0 98 -1 105 -20 105 -18 0 -20 -7 -20
-74 0 -78 -13 -106 -49 -106 -32 0 -41 22 -41 102 0 71 -2 78 -20 78 -18 0
-20 -7 -20 -85z"/>
<path d="M5780 220 c0 -123 -1 -130 -20 -130 -11 0 -20 -7 -20 -15 0 -20 44
-20 64 1 13 12 16 41 16 145 0 122 -1 129 -20 129 -19 0 -20 -7 -20 -130z"/>
</g>
</svg>
