<?xml version="1.0" standalone="no"?>
<!DOCTYPE svg PUBLIC "-//W3C//DTD SVG 20010904//EN"
 "http://www.w3.org/TR/2001/REC-SVG-20010904/DTD/svg10.dtd">
<svg version="1.0" xmlns="http://www.w3.org/2000/svg"
 width="1280.000000pt" height="1280.000000pt" viewBox="0 0 1280.000000 1280.000000"
 preserveAspectRatio="xMidYMid meet">

<g transform="translate(0.000000,1280.000000) scale(0.100000,-0.100000)"
fill="#000000" stroke="none">
<path d="M6005 12340 c-1204 -87 -2318 -511 -3255 -1240 -1216 -947 -2020
-2325 -2239 -3840 -47 -320 -55 -459 -55 -860 0 -377 5 -467 40 -750 216
-1725 1183 -3271 2649 -4232 862 -566 1823 -886 2880 -959 214 -15 755 -6 955
15 1258 135 2373 613 3310 1420 223 192 558 538 742 766 519 644 911 1417
1122 2211 187 706 242 1466 160 2204 -124 1115 -572 2183 -1288 3070 -183 227
-490 546 -704 733 -551 482 -1197 864 -1879 1113 -470 172 -950 281 -1477 335
-177 18 -781 27 -961 14z m985 -124 c448 -50 827 -130 1220 -258 1486 -484
2718 -1546 3421 -2949 535 -1070 728 -2297 548 -3489 -189 -1252 -781 -2406
-1690 -3295 -1386 -1355 -3317 -1931 -5224 -1560 -1541 301 -2927 1244 -3782
2575 -499 776 -796 1627 -900 2580 -26 234 -26 934 0 1160 37 324 76 549 147
835 381 1542 1393 2876 2785 3667 723 412 1543 668 2355 738 69 5 143 12 165
14 113 11 819 -3 955 -18z"/>
<path d="M6045 11819 c-543 -34 -1135 -168 -1655 -373 -195 -78 -592 -274
-770 -381 -408 -246 -706 -480 -1056 -829 -352 -353 -578 -640 -829 -1056
-102 -170 -279 -521 -355 -705 -638 -1552 -525 -3323 305 -4769 827 -1442
2265 -2429 3895 -2675 360 -54 819 -75 1160 -52 1077 73 2069 438 2915 1074
1158 869 1916 2147 2119 3570 45 308 51 406 51 777 0 371 -6 469 -51 778 -219
1538 -1094 2909 -2402 3766 -982 644 -2144 949 -3327 875z m905 -93 c667 -75
1242 -241 1819 -526 1037 -512 1890 -1358 2410 -2390 323 -639 505 -1298 561
-2019 13 -173 13 -608 0 -782 -72 -933 -377 -1820 -890 -2586 -386 -576 -890
-1080 -1470 -1471 -498 -336 -1100 -603 -1685 -747 -445 -110 -823 -155 -1295
-155 -538 0 -997 64 -1500 210 -1304 379 -2429 1258 -3125 2445 -410 698 -651
1479 -715 2314 -13 172 -13 575 0 756 83 1138 502 2173 1240 3065 133 161 499
527 660 660 885 732 1908 1149 3045 1240 173 13 776 5 945 -14z"/>
<path d="M5083 11463 c-25 -3 -43 -9 -42 -16 0 -7 13 -46 28 -87 l29 -75 153
0 c141 0 158 -2 202 -23 26 -13 47 -28 47 -32 0 -5 -26 -14 -57 -20 -253 -51
-649 -170 -913 -275 -226 -90 -670 -313 -670 -337 0 -13 75 -128 84 -128 4 0
34 16 66 35 32 19 60 35 62 35 2 0 26 -50 53 -111 65 -150 102 -175 269 -188
l79 -6 -117 -121 -116 -122 66 -42 65 -43 36 34 c32 31 182 227 278 362 22 31
43 57 46 57 3 0 22 -36 41 -79 l36 -79 113 -35 c82 -26 118 -33 131 -26 17 9
16 12 -6 62 -13 28 -83 184 -155 346 -73 161 -129 297 -124 301 24 23 487 156
693 199 154 32 142 34 157 -29 6 -30 9 -58 5 -61 -4 -4 -61 -17 -127 -29 -189
-35 -271 -75 -311 -151 -44 -86 7 -208 118 -282 82 -54 152 -70 277 -65 l105
5 103 -49 103 -50 70 27 c39 15 70 28 70 30 0 2 -45 25 -101 51 l-101 48 35
28 c68 54 69 124 4 172 -42 31 -184 30 -244 -2 -47 -24 -73 -56 -73 -88 0 -22
-33 -37 -116 -50 -73 -11 -128 36 -109 95 10 33 66 80 119 100 28 10 129 33
224 51 94 18 172 37 172 41 0 5 -21 64 -46 130 -35 92 -44 123 -34 129 12 8
139 26 258 37 l62 6 0 41 c0 23 -3 58 -7 80 l-6 38 -76 -6 c-42 -4 -140 -16
-218 -28 l-143 -20 -55 50 c-131 120 -249 173 -379 170 -39 -1 -90 -3 -113 -5z
m-480 -803 c26 -60 47 -114 47 -120 0 -19 -81 -150 -112 -180 -33 -34 -78 -46
-109 -30 -19 11 -59 87 -135 257 l-23 53 62 32 c67 34 208 97 218 98 3 0 27
-49 52 -110z"/>
<path d="M6322 11315 c-30 -8 -63 -21 -73 -29 -54 -38 -96 -131 -84 -186 4
-16 25 -45 47 -66 60 -54 120 -77 216 -82 45 -2 82 -7 82 -10 0 -13 -82 -112
-109 -131 l-30 -22 -11 21 c-21 39 -99 80 -153 80 -42 0 -54 -5 -83 -34 -42
-42 -46 -95 -11 -146 35 -53 97 -80 183 -80 l73 0 105 -134 106 -134 42 10
c24 6 46 14 50 17 4 3 -25 49 -65 101 -40 52 -85 111 -100 131 l-28 37 56 31
c81 46 140 104 172 170 25 49 28 67 27 146 -1 98 -16 144 -72 221 -61 84 -216
124 -340 89z m240 -103 c67 -57 -3 -224 -86 -208 -53 11 -80 47 -79 106 1 59
22 96 66 115 35 15 73 10 99 -13z"/>
<path d="M6816 11273 c-3 -10 -6 -45 -7 -78 l-3 -60 73 -9 73 -8 -6 -57 c-3
-31 -13 -170 -22 -309 l-17 -254 84 -84 c129 -130 119 -150 149 293 14 204 27
374 30 377 3 2 50 -4 105 -14 54 -11 99 -19 100 -17 1 1 9 37 17 79 l15 76
-114 22 c-125 24 -389 60 -440 60 -22 0 -33 -6 -37 -17z"/>
<path d="M8146 10899 c-29 -79 -29 -79 -17 -79 6 0 64 -23 130 -51 l119 -50
-14 -43 c-8 -23 -28 -58 -44 -77 l-28 -34 -34 31 c-66 62 -110 70 -159 26 -74
-66 -52 -252 68 -577 l45 -123 37 5 c20 3 37 6 38 7 1 1 -27 85 -62 188 l-64
187 42 11 c23 6 57 16 75 22 31 9 37 7 90 -35 75 -58 151 -96 226 -112 40 -8
60 -17 58 -26 -2 -7 -30 -61 -63 -120 -32 -59 -59 -113 -59 -120 0 -16 79
-210 92 -226 6 -7 14 -11 18 -8 4 3 88 153 186 335 99 181 182 330 187 330 13
0 269 -186 376 -275 149 -123 181 -153 181 -172 0 -45 -77 -123 -121 -123 -9
0 -22 14 -29 30 -18 42 -66 101 -102 124 -63 40 -128 10 -149 -68 -24 -86 11
-317 93 -623 l40 -151 44 -4 c24 -2 44 -1 44 2 0 3 -14 52 -31 110 -34 116
-89 346 -89 371 0 15 6 16 43 7 60 -14 154 -2 214 28 54 26 109 81 146 147 11
20 25 37 31 37 13 0 117 -109 268 -280 113 -127 360 -449 355 -462 -1 -4 -36
-28 -77 -52 l-75 -44 -7 66 c-14 138 -56 231 -123 272 -96 59 -240 -21 -281
-156 -37 -125 2 -222 124 -306 l44 -30 -63 -40 c-35 -22 -67 -43 -71 -47 -7
-6 -38 -195 -38 -231 0 -48 17 -42 205 79 l188 120 50 -27 c79 -42 147 -112
147 -149 0 -63 -112 -113 -221 -99 -53 7 -51 11 -64 -104 -4 -30 -9 -63 -12
-74 -5 -17 0 -18 73 -14 139 9 220 64 277 186 42 90 44 183 4 264 -15 31 -43
70 -62 87 l-34 29 65 41 c36 23 70 39 74 36 30 -19 245 -436 329 -638 34 -83
38 -99 25 -104 -9 -3 -145 -51 -302 -107 l-286 -101 -43 -113 c-37 -100 -45
-142 -24 -142 3 0 169 59 369 130 200 72 367 130 371 130 17 0 151 -493 167
-611 6 -45 5 -47 -32 -70 -39 -24 -77 -28 -128 -15 l-28 7 7 74 c11 123 -24
195 -97 195 -100 0 -229 -204 -402 -634 l-36 -90 27 -28 c15 -15 29 -28 33
-28 3 0 30 60 59 133 30 72 75 178 101 234 l48 101 49 -47 c101 -97 210 -121
348 -77 44 14 83 22 86 18 4 -4 14 -74 23 -156 9 -83 18 -152 21 -154 10 -10
155 10 155 21 0 7 -7 73 -15 147 -152 1321 -793 2476 -1843 3318 -141 113
-472 335 -637 427 -199 110 -572 285 -610 285 -7 0 -24 -32 -39 -71z m599
-372 c39 -22 72 -42 75 -44 3 -3 -13 -38 -35 -79 -33 -61 -46 -76 -74 -85 -69
-23 -169 8 -250 77 l-42 37 24 26 c27 29 58 86 76 143 l12 38 72 -36 c40 -20
104 -55 142 -77z m1210 -1375 c68 -42 137 -142 147 -212 4 -32 -13 -30 -109
17 -90 44 -143 99 -143 147 0 25 7 39 22 50 29 21 46 20 83 -2z"/>
<path d="M6151 10279 c-804 -51 -1543 -340 -2196 -858 -148 -117 -441 -408
-561 -556 -424 -524 -699 -1118 -818 -1767 -82 -442 -82 -956 0 -1396 119
-646 384 -1224 801 -1747 102 -128 410 -441 533 -542 469 -383 979 -643 1540
-783 336 -85 582 -114 950 -114 364 0 601 28 936 110 923 224 1756 809 2294
1609 348 517 559 1097 637 1745 24 203 24 640 -1 840 -71 588 -243 1098 -529
1574 -754 1254 -2131 1978 -3586 1885z m206 -96 c-2 -5 -57 -97 -122 -205
l-118 -198 -51 0 c-149 0 -407 -45 -583 -101 -286 -92 -493 -219 -747 -459
-195 -184 -320 -260 -756 -465 -233 -109 -375 -193 -456 -270 -48 -46 -64 -67
-64 -88 0 -36 15 -35 103 7 121 58 352 126 427 125 14 0 549 -217 1190 -483
l1165 -483 3 -249 2 -249 -77 81 c-90 93 -175 164 -276 233 -313 210 -641 324
-1372 476 -534 111 -756 174 -961 275 -180 87 -321 201 -402 323 l-25 38 58
84 c189 276 463 566 757 802 103 83 359 255 483 325 478 271 1036 439 1595
481 93 7 231 7 227 0z m525 -23 c780 -100 1470 -419 2070 -956 191 -171 416
-427 556 -632 l56 -83 -19 -36 c-27 -50 -154 -183 -227 -238 -221 -166 -479
-254 -1203 -410 -406 -87 -608 -138 -791 -199 -358 -120 -604 -260 -817 -465
l-57 -56 2 239 3 238 1170 485 1170 485 75 -12 c110 -18 231 -55 345 -106 55
-24 106 -44 113 -44 7 0 12 13 12 29 0 45 -114 143 -272 234 -26 15 -156 79
-290 143 -408 193 -532 270 -718 449 -125 120 -193 174 -315 255 -160 104
-407 205 -615 251 -102 22 -319 49 -395 49 l-50 0 -100 167 c-55 91 -111 184
-124 206 l-24 40 146 -6 c81 -4 215 -16 299 -27z m-692 -602 c52 -89 96 -164
97 -167 2 -3 -59 -7 -135 -7 -117 -1 -274 -19 -347 -40 -20 -5 -20 -1 -17 104
4 98 -4 175 -23 223 -5 14 6 18 77 28 130 17 140 18 198 19 l55 1 95 -161z
m775 141 c39 -6 71 -12 73 -14 1 -1 -5 -31 -14 -66 -12 -47 -15 -92 -12 -171
4 -95 3 -108 -11 -103 -60 18 -238 38 -353 39 -128 1 -135 2 -126 19 5 10 47
81 94 158 46 77 84 145 84 151 0 12 145 5 265 -13z m-1253 -66 c14 -42 18
-240 5 -285 -11 -40 -33 -35 -42 9 -12 64 -46 143 -91 210 -24 36 -43 67 -42
68 6 5 124 34 140 34 10 1 21 -13 30 -36z m1482 20 c34 -9 62 -17 64 -18 1 -1
-16 -30 -38 -63 -45 -67 -84 -156 -95 -215 -20 -104 -61 21 -52 158 6 99 22
155 44 155 9 0 44 -7 77 -17z m-1680 -92 c48 -65 94 -166 102 -222 l6 -45 -43
-13 c-81 -24 -263 -102 -413 -177 -81 -41 -150 -74 -152 -74 -2 0 -15 22 -28
48 -32 63 -58 164 -54 210 3 33 11 41 101 103 53 37 134 86 179 110 86 44 235
108 255 109 6 0 27 -22 47 -49z m1953 -2 c114 -50 247 -126 336 -191 62 -46
67 -53 67 -87 0 -51 -25 -141 -55 -201 -14 -28 -27 -50 -28 -50 -2 0 -69 34
-151 74 -136 69 -364 166 -428 181 -33 8 -34 21 -12 96 21 70 48 122 93 182
42 56 39 56 178 -4z m-1129 -257 c18 -23 18 -1686 0 -1679 -100 38 -2225 921
-2231 926 -4 4 34 15 85 25 222 42 440 135 656 280 295 196 699 375 987 435
197 42 474 49 503 13z m517 7 c106 -14 276 -58 416 -109 176 -64 517 -236 670
-338 227 -152 406 -230 653 -285 60 -13 105 -27 99 -30 -13 -8 -2232 -927
-2238 -927 -3 0 -5 375 -5 833 0 651 3 837 13 850 20 27 204 30 392 6z m-1929
-244 c15 -33 29 -63 31 -66 2 -3 -8 -11 -23 -17 -22 -11 -28 -10 -44 10 -24
29 -76 134 -86 171 -5 24 -1 34 27 63 l34 35 16 -68 c9 -37 30 -95 45 -128z
m3070 100 c-7 -35 -58 -139 -84 -173 -16 -21 -21 -22 -44 -12 l-26 12 29 63
c17 34 37 95 46 134 l17 71 34 -33 c28 -26 32 -37 28 -62z m-3167 -194 c12
-16 21 -33 21 -38 0 -21 -225 -151 -357 -207 -107 -45 -424 -126 -493 -126
-18 0 -45 50 -38 71 2 6 82 48 178 93 253 119 428 225 570 345 l35 29 32 -69
c18 -38 41 -82 52 -98z m3306 103 c118 -98 435 -277 662 -374 l51 -22 -14 -42
-15 -43 -137 28 c-175 35 -287 68 -402 118 -95 41 -261 135 -306 174 l-25 22
35 59 c20 32 43 79 52 103 19 48 10 50 99 -23z m-4950 -1398 c177 -118 419
-232 645 -304 141 -45 272 -77 590 -143 461 -96 642 -149 845 -248 297 -145
594 -421 696 -646 54 -120 71 -205 76 -385 4 -149 1 -189 -31 -415 -33 -237
-56 -429 -72 -594 l-6 -75 -22 30 c-101 140 -296 253 -452 262 -75 4 -140 -16
-131 -41 2 -7 28 -24 59 -38 107 -52 168 -155 168 -284 0 -75 -30 -178 -60
-210 -36 -38 -19 -48 26 -16 44 33 88 105 98 162 4 20 0 74 -8 120 -16 93 -13
130 14 154 27 25 68 9 125 -49 64 -63 99 -124 119 -201 50 -189 -22 -426 -180
-594 -40 -43 -93 -89 -118 -102 -26 -13 -46 -30 -46 -38 0 -8 19 -33 43 -55
100 -94 174 -214 204 -329 21 -84 13 -272 -18 -377 -46 -161 -103 -251 -178
-285 -53 -23 -75 -9 -68 44 35 245 34 255 -24 412 -41 111 -44 116 -128 202
-47 48 -105 100 -128 115 -38 24 -43 31 -43 64 0 53 34 70 118 58 52 -7 70
-15 112 -52 28 -24 61 -59 73 -78 12 -19 38 -53 58 -75 22 -24 39 -55 43 -79
4 -21 12 -46 17 -55 5 -9 13 -28 19 -43 5 -16 16 -28 25 -28 19 0 19 -5 -6 74
-48 158 -167 333 -237 351 -15 4 -48 20 -74 37 l-48 31 0 62 c0 76 23 155 55
194 l25 29 -25 37 c-13 20 -27 53 -31 72 -7 39 13 68 79 109 42 27 46 48 17
79 -14 15 -23 45 -30 101 -6 43 -15 93 -21 111 -10 30 -60 83 -78 83 -5 0 -23
-32 -40 -71 -26 -58 -38 -73 -66 -85 -45 -18 -71 -18 -79 2 -3 9 -6 55 -6 103
0 125 -27 142 -111 71 -43 -36 -53 -40 -103 -40 -51 0 -60 4 -133 59 -43 32
-96 81 -119 107 -86 103 -92 119 -129 314 -30 156 -35 202 -34 323 0 108 5
154 18 192 l18 50 74 10 c89 13 99 18 99 54 0 30 -54 88 -107 115 -60 30 -64
58 -28 171 32 97 26 124 -48 208 -32 38 -82 117 -127 202 -40 77 -97 178 -127
224 -60 92 -225 268 -318 338 -33 25 -75 63 -94 84 -29 35 -107 86 -116 77 -2
-2 16 -28 39 -59 59 -78 86 -167 97 -319 7 -109 6 -140 -13 -241 -11 -64 -18
-128 -14 -142 10 -40 42 -35 64 11 34 66 45 134 48 282 1 80 3 148 3 152 1 4
10 12 21 18 42 23 98 -30 202 -190 118 -180 168 -309 168 -428 0 -122 -67
-167 -298 -201 -616 -90 -1060 -36 -1054 128 1 40 50 199 81 267 16 34 50 85
75 115 26 30 90 115 142 189 69 98 111 147 155 181 156 121 280 241 265 256
-15 15 -230 -138 -361 -258 -105 -96 -163 -165 -221 -263 -27 -45 -62 -99 -79
-121 -42 -55 -94 -173 -125 -280 -26 -88 -27 -90 -71 -111 -56 -28 -97 -71
-105 -112 -6 -27 -2 -36 28 -64 19 -18 51 -46 72 -62 44 -33 66 -78 66 -134 0
-42 -10 -58 -84 -135 -36 -37 -46 -55 -46 -80 0 -39 29 -74 68 -83 77 -17 75
-15 89 -99 19 -109 83 -298 147 -430 174 -357 446 -640 930 -967 100 -67 211
-151 247 -186 l67 -63 11 -79 c16 -106 4 -147 -60 -215 -26 -28 -55 -68 -63
-87 -25 -59 -12 -63 157 -44 187 20 243 41 320 117 l58 58 28 -39 c53 -74 49
-141 -15 -256 -32 -57 -33 -61 -17 -83 15 -22 21 -23 82 -19 90 7 140 34 190
105 56 77 87 147 96 213 7 53 35 101 59 99 6 0 35 -17 64 -37 47 -32 61 -50
102 -132 53 -105 90 -241 90 -331 0 -67 -27 -161 -75 -261 -19 -40 -35 -78
-35 -85 0 -23 44 -24 123 -4 113 30 186 72 266 157 161 168 228 418 171 638
-26 101 -89 221 -157 297 -48 54 -54 66 -49 92 7 36 20 52 67 87 40 29 116
117 179 206 22 32 40 51 40 43 0 -8 7 -59 15 -114 15 -105 36 -183 104 -375
107 -306 121 -647 41 -965 -35 -141 -86 -265 -108 -265 -49 0 -301 44 -439 76
-1448 335 -2579 1503 -2862 2957 -55 282 -66 402 -66 737 0 335 11 455 66 737
45 232 129 510 210 700 l18 43 88 -69 c49 -38 133 -99 188 -135z m6753 92
c116 -300 190 -606 234 -958 8 -66 13 -220 13 -415 0 -324 -11 -455 -56 -695
-279 -1465 -1386 -2633 -2831 -2985 -156 -38 -340 -71 -450 -82 -66 -6 -70 -5
-64 13 14 47 47 282 57 409 21 269 -4 489 -105 927 -81 352 -104 480 -118 681
-20 269 7 538 93 920 37 165 42 204 55 427 7 142 20 272 29 309 49 201 194
351 487 506 239 125 463 201 1093 369 630 168 894 260 1148 403 107 60 273
180 326 237 19 20 38 36 42 36 4 0 25 -46 47 -102z m-5509 -1492 c28 -34 -45
-96 -111 -96 -43 0 -43 0 -22 41 9 18 32 38 57 49 52 23 61 24 76 6z m-1402
-101 c20 -9 51 -27 69 -40 18 -14 45 -25 61 -25 15 0 34 -4 42 -9 8 -5 -19
-11 -72 -16 -84 -7 -87 -6 -130 23 -60 42 -75 61 -56 73 20 13 45 11 86 -6z
m1273 -118 c25 -8 77 -24 115 -36 97 -30 120 -48 111 -94 -9 -46 -32 -67 -49
-43 -7 9 -45 23 -87 33 -87 19 -234 21 -610 9 -247 -8 -258 -9 -365 -41 -60
-18 -126 -36 -145 -40 -19 -4 -86 -31 -150 -60 -63 -29 -135 -60 -160 -68 -41
-14 -46 -14 -57 1 -35 44 7 112 77 127 18 4 60 20 95 36 36 16 75 29 88 29 24
0 68 12 207 55 119 37 295 51 380 31 61 -13 65 -13 89 5 16 13 39 19 70 18 72
-1 181 16 241 40 58 22 77 22 150 -2z m18 -181 c32 -11 40 -51 47 -231 9 -231
49 -467 99 -595 123 -309 272 -475 597 -666 31 -19 37 -28 42 -68 7 -48 -9
-106 -33 -121 -6 -4 -49 -8 -93 -9 -75 -1 -87 1 -137 30 -30 18 -79 40 -108
49 -29 9 -74 32 -100 50 -26 18 -76 50 -111 71 -89 54 -189 165 -310 344 -57
84 -123 174 -147 201 -55 62 -75 102 -108 212 -14 48 -37 124 -51 170 -39 133
-80 407 -73 492 4 46 -1 45 213 69 77 9 163 22 190 29 45 11 51 11 57 -4 4
-10 16 -20 26 -23z m-621 -66 c17 -33 17 -119 1 -125 -41 -13 -52 -9 -75 30
-25 44 -30 94 -11 113 21 21 71 10 85 -18z m-228 -21 c23 -41 1 -129 -38 -152
-29 -17 -29 -17 -60 18 -48 55 -42 106 19 148 33 23 61 18 79 -14z m-285 -85
c21 -8 21 -75 1 -114 -31 -60 -115 -27 -115 44 0 54 60 91 114 70z m410 -96
c25 -42 27 -83 5 -107 -52 -56 -109 -42 -109 26 0 82 69 136 104 81z m-254
-110 c0 -61 -6 -72 -38 -83 -34 -10 -72 28 -72 71 0 40 29 64 77 64 l33 0 0
-52z m430 11 c16 -30 12 -77 -8 -88 -21 -11 -35 -4 -51 26 -15 30 -14 59 4 77
18 18 41 11 55 -15z m-555 -151 c33 -39 32 -64 -4 -82 -26 -14 -30 -14 -50 8
-25 26 -43 83 -35 108 7 24 56 6 89 -34z m419 26 c22 -8 20 -30 -5 -55 -25
-25 -39 -13 -39 34 0 27 12 33 44 21z m-196 -23 c18 -11 12 -41 -10 -55 -24
-15 -42 5 -34 38 7 27 21 32 44 17z m320 -74 c2 -18 -1 -27 -11 -27 -18 0 -29
24 -20 45 8 23 28 12 31 -18z m-134 -44 c21 -42 22 -75 2 -105 -24 -37 -41
-35 -82 6 -41 41 -46 86 -12 110 36 26 75 20 92 -11z m-239 -53 c17 -33 20
-86 5 -95 -5 -3 -10 -17 -10 -30 0 -17 7 -25 28 -30 53 -13 72 -32 72 -75 0
-38 -14 -61 -50 -80 -25 -13 -41 -6 -68 34 -24 35 -31 77 -18 114 6 17 4 22
-9 22 -21 0 -47 63 -42 99 12 74 63 97 92 41z m425 -5 c0 -18 -5 -25 -19 -25
-24 0 -33 13 -25 34 10 27 44 20 44 -9z m-125 -167 c8 -35 -9 -66 -40 -74 -36
-9 -55 11 -55 60 0 95 75 106 95 14z m188 55 c9 -5 9 -74 -1 -90 -4 -6 -19
-16 -34 -22 -24 -9 -27 -7 -37 21 -23 66 -6 112 37 102 15 -4 30 -9 35 -11z
m111 -166 c9 -32 8 -35 -14 -57 -27 -27 -44 -25 -59 6 -9 20 -9 35 -1 60 10
30 13 32 40 23 15 -6 31 -20 34 -32z m-200 -19 c8 -31 7 -81 -2 -95 -4 -6 -19
-14 -33 -18 -23 -6 -28 -2 -37 25 -6 17 -8 38 -5 48 8 24 44 62 59 62 6 0 14
-10 18 -22z m-192 -45 c23 -20 24 -90 2 -121 -20 -28 -28 -28 -70 6 -36 29
-41 49 -23 101 9 26 16 31 42 31 17 0 39 -7 49 -17z m486 -89 c29 -20 29 -60
0 -68 -26 -7 -48 16 -48 49 0 38 14 43 48 19z m-168 -29 c10 -26 0 -68 -19
-79 -6 -4 -20 -2 -31 4 -30 16 -28 77 3 90 33 13 37 12 47 -15z m1038 -26 c3
-25 -30 -55 -48 -44 -15 9 -12 42 6 60 21 21 38 15 42 -16z m-1191 -61 c18
-16 23 -32 23 -68 0 -40 -3 -48 -26 -58 -32 -15 -58 -3 -84 41 -22 36 -25 59
-10 88 15 26 67 25 97 -3z m244 -105 c-6 -22 -14 -29 -39 -31 -30 -3 -32 -1
-32 28 0 23 6 33 23 39 35 13 57 -3 48 -36z m1249 -11 c0 -30 -2 -33 -22 -26
-26 7 -58 33 -58 46 0 5 15 15 32 23 39 16 48 7 48 -43z m-1080 38 c0 -5 -7
-10 -15 -10 -8 0 -15 5 -15 10 0 6 7 10 15 10 8 0 15 -4 15 -10z m15 -120 c13
-15 16 -30 12 -60 -6 -50 -22 -70 -53 -70 -44 0 -91 89 -66 126 19 28 83 31
107 4z m-258 -20 c14 -28 2 -50 -29 -50 -23 0 -32 22 -24 56 8 32 36 29 53 -6z
m402 -16 c-9 -11 -15 -12 -25 -3 -11 9 -12 15 -3 25 9 11 15 12 25 3 11 -9 12
-15 3 -25z m172 -84 c27 -15 25 -50 -3 -50 -27 0 -58 28 -51 46 6 17 27 18 54
4z m-156 -63 c19 -26 19 -71 2 -85 -24 -20 -71 1 -81 36 -18 65 42 102 79 49z
m-182 -15 c10 -9 17 -25 15 -36 -4 -27 -50 -33 -84 -11 -26 17 -33 60 -11 69
18 7 60 -3 80 -22z m1047 -149 c-26 -96 -63 -165 -109 -206 l-36 -31 -3 40
c-2 21 2 57 8 79 15 50 106 222 134 253 l21 24 3 -41 c2 -23 -6 -76 -18 -118z
m-535 77 c19 -37 19 -64 0 -80 -19 -16 -38 -2 -55 39 -9 22 -9 35 0 50 15 29
37 26 55 -9z m-145 -38 c0 -16 -6 -37 -14 -48 -15 -19 -15 -19 -37 3 -22 22
-23 23 -6 58 15 31 20 34 37 25 13 -7 20 -21 20 -38z m380 -12 c0 -11 -4 -20
-10 -20 -5 0 -10 9 -10 20 0 11 5 20 10 20 6 0 10 -9 10 -20z m-540 -70 c24
-24 18 -40 -14 -40 -28 0 -50 24 -42 45 8 21 32 19 56 -5z m448 -57 c3 -25 -2
-35 -24 -49 -25 -17 -27 -17 -40 1 -18 24 -18 35 2 63 24 34 58 26 62 -15z
m-324 -115 c10 -13 16 -44 16 -74 0 -34 5 -56 15 -64 22 -18 32 -4 42 54 10
60 26 68 49 25 20 -39 15 -115 -9 -153 -9 -14 -49 -44 -87 -67 -62 -36 -74
-40 -95 -31 -31 14 -31 32 -6 160 11 54 22 114 26 135 7 42 26 48 49 15z m509
-85 c48 -95 42 -228 -16 -343 -35 -71 -80 -107 -97 -80 -21 33 -11 110 25 188
33 71 35 80 25 125 -15 69 -13 94 10 117 27 27 37 25 53 -7z"/>
<path d="M3305 6700 c-54 -28 -78 -63 -82 -124 -5 -67 20 -113 77 -143 53 -28
89 -29 141 -3 53 27 79 72 79 135 0 65 -28 110 -83 135 -54 25 -82 25 -132 0z
m130 -100 c0 -29 -4 -36 -23 -38 -43 -6 -69 37 -40 66 7 7 24 12 38 10 21 -3
25 -8 25 -38z"/>
<path d="M9120 7351 c0 -15 124 -131 232 -219 95 -76 156 -148 258 -302 20
-30 52 -72 72 -94 53 -55 92 -135 132 -269 34 -110 35 -120 22 -152 -58 -138
-482 -176 -1048 -94 -223 32 -298 81 -298 192 0 96 18 159 80 282 93 184 224
355 271 355 5 0 19 -10 30 -21 19 -19 21 -28 15 -98 -9 -99 9 -249 37 -320 19
-47 26 -56 47 -56 22 0 25 5 28 37 2 20 -6 83 -16 140 -16 86 -18 122 -11 223
11 168 40 260 110 344 16 19 27 37 24 39 -9 9 -96 -50 -120 -82 -14 -19 -56
-56 -93 -84 -104 -77 -261 -246 -324 -348 -30 -49 -86 -149 -124 -222 -45 -86
-89 -156 -126 -198 -53 -59 -58 -69 -58 -112 0 -26 9 -71 20 -100 33 -87 25
-129 -33 -158 -47 -24 -107 -85 -107 -109 0 -38 17 -48 96 -59 l77 -11 18 -50
c13 -38 18 -84 18 -195 1 -125 -4 -169 -33 -323 -31 -161 -37 -183 -72 -235
-47 -71 -132 -157 -204 -205 -46 -31 -63 -37 -108 -37 -49 0 -58 4 -99 40 -46
41 -79 50 -101 28 -7 -7 -12 -45 -12 -99 0 -101 -5 -119 -32 -119 -49 0 -84
30 -118 100 -19 39 -35 70 -37 70 -2 0 -15 -7 -29 -17 -38 -25 -61 -79 -73
-177 -8 -70 -15 -92 -31 -103 -30 -21 -24 -49 14 -72 97 -61 108 -108 44 -202
-16 -24 -16 -28 -2 -40 36 -29 58 -93 62 -179 l4 -85 -49 -32 c-26 -17 -60
-34 -75 -38 -48 -12 -132 -113 -181 -217 -36 -75 -77 -185 -77 -205 0 -2 7 -3
15 -3 16 0 51 72 61 127 4 21 23 54 44 77 20 23 46 57 58 76 11 19 44 54 72
78 42 37 60 45 112 52 84 12 118 -5 118 -58 0 -33 -5 -40 -43 -64 -23 -15 -79
-64 -124 -110 -77 -77 -85 -90 -122 -183 -67 -173 -68 -184 -35 -435 9 -67
-24 -76 -97 -28 -52 36 -95 109 -134 230 -46 141 -57 300 -31 413 27 112 96
225 202 330 24 23 44 49 44 56 0 8 -20 25 -45 38 -56 30 -169 148 -214 225
-19 32 -48 94 -64 139 -27 73 -31 95 -31 202 -1 118 -1 121 36 197 39 82 116
170 164 188 69 27 93 -26 70 -159 -9 -49 -13 -105 -10 -123 11 -54 61 -133
103 -161 46 -31 62 -21 25 13 -13 13 -33 52 -44 88 -54 175 6 342 149 411 30
14 56 31 58 38 7 21 -53 43 -115 43 -97 0 -256 -66 -359 -149 -68 -55 -156
-180 -178 -253 -32 -110 -14 -259 47 -384 30 -62 166 -240 198 -258 8 -5 32
-26 53 -46 52 -52 49 -76 -17 -150 -68 -76 -142 -221 -162 -320 -32 -150 -5
-322 74 -475 43 -84 162 -207 239 -248 96 -51 253 -80 253 -46 0 5 -20 56 -44
112 -51 115 -65 170 -66 242 0 83 38 222 90 325 42 82 55 100 102 132 29 20
58 37 64 37 25 2 55 -47 61 -100 11 -99 101 -247 176 -289 28 -16 63 -25 112
-28 67 -4 71 -3 81 19 12 27 10 36 -28 99 -54 91 -55 177 -2 247 l24 32 57
-58 c77 -76 135 -97 321 -118 127 -13 146 -13 159 0 13 13 13 18 -2 48 -10 19
-39 57 -66 85 -60 65 -73 107 -59 204 6 39 14 79 19 88 22 39 125 125 261 217
443 299 676 515 860 795 122 186 232 453 263 635 l13 80 55 13 c62 15 88 42
89 90 0 27 -12 45 -65 102 -59 63 -65 73 -65 112 0 57 27 105 81 146 73 55 89
73 89 101 0 48 -58 113 -113 126 -35 9 -42 20 -61 92 -24 97 -68 202 -112 267
-21 33 -62 97 -91 143 -28 46 -75 112 -103 147 -80 98 -286 272 -417 351 -61
37 -73 41 -73 26z m-677 -1080 c77 -33 103 -91 40 -91 -67 0 -140 62 -112 96
15 18 18 18 72 -5z m1417 -91 c12 -7 11 -13 -10 -35 -55 -58 -82 -67 -176 -60
-54 5 -81 11 -73 16 8 5 28 9 46 9 19 0 43 10 61 25 55 46 120 66 152 45z
m-1212 -121 c65 -24 175 -42 243 -40 32 1 53 -5 70 -18 24 -18 28 -18 89 -5
85 20 261 6 380 -31 139 -43 183 -55 207 -55 12 0 48 -12 80 -26 32 -14 79
-32 104 -40 41 -12 74 -38 93 -71 4 -7 0 -26 -8 -42 -18 -35 -24 -34 -146 19
-47 20 -112 49 -145 63 -33 14 -118 42 -190 63 -129 38 -132 38 -395 48 -370
14 -530 13 -619 -7 -43 -10 -79 -24 -87 -34 -13 -17 -15 -17 -29 2 -19 24 -29
60 -22 79 8 20 82 53 168 74 42 11 85 24 95 30 27 16 47 15 112 -9z m-33 -165
c39 -7 130 -20 204 -28 73 -9 137 -19 142 -22 13 -8 11 -99 -6 -231 -19 -144
-31 -197 -84 -387 -48 -170 -71 -222 -136 -297 -25 -30 -92 -121 -148 -204
-117 -171 -219 -285 -304 -335 -32 -19 -71 -45 -87 -58 -35 -28 -111 -67 -150
-76 -17 -4 -55 -22 -85 -39 -52 -30 -62 -32 -139 -31 -48 1 -88 7 -97 14 -21
17 -32 68 -27 118 4 40 9 47 49 70 333 197 480 368 606 707 38 103 75 350 83
561 l7 179 36 34 c20 19 35 39 33 44 -2 5 5 6 15 2 10 -4 50 -14 88 -21z m579
-70 c11 -29 6 -63 -16 -109 -23 -46 -40 -51 -75 -23 -25 20 -10 121 20 140 21
14 65 9 71 -8z m216 -19 c65 -33 68 -118 7 -167 -20 -15 -24 -15 -48 -1 -43
26 -62 120 -33 161 18 26 34 27 74 7z m294 -116 c52 -41 25 -129 -40 -129 -30
0 -37 4 -50 35 -17 42 -18 102 -1 108 28 12 66 6 91 -14z m-419 -84 c20 -19
25 -34 25 -72 0 -74 -41 -90 -97 -40 -42 38 -21 137 28 137 11 0 31 -11 44
-25z m265 -73 c47 -38 7 -131 -50 -117 -34 9 -40 21 -40 83 l0 52 34 0 c19 0
44 -8 56 -18z m-454 -28 c9 -34 -3 -72 -25 -84 -45 -23 -70 61 -31 100 24 24
48 17 56 -16z m579 -155 c-4 -16 -18 -43 -32 -59 -24 -29 -25 -29 -55 -14 -25
13 -29 19 -23 42 9 35 33 62 70 78 37 15 50 0 40 -47z m-461 26 c3 -8 1 -27
-4 -40 -8 -22 -13 -24 -29 -15 -26 13 -37 50 -20 61 22 13 46 11 53 -6z m192
-31 c8 -33 -10 -53 -34 -38 -22 14 -28 44 -10 55 23 15 37 10 44 -17z m-331
-34 c10 -16 -5 -50 -21 -50 -8 0 -14 10 -14 23 0 34 21 50 35 27z m193 -56
c30 -21 29 -65 -3 -103 -36 -42 -61 -48 -85 -19 -39 46 -14 138 38 138 15 0
38 -7 50 -16z m227 -64 c8 -16 15 -38 15 -50 0 -34 -28 -90 -45 -90 -13 0 -15
-5 -8 -22 13 -39 7 -76 -21 -118 -31 -48 -48 -50 -87 -11 -50 51 -36 112 32
132 38 12 40 15 35 41 -3 15 -9 41 -12 57 -15 73 59 123 91 61z m-458 4 c7
-20 -11 -38 -31 -31 -9 4 -12 13 -9 26 6 25 31 28 40 5z m-33 -137 c6 -17 5
-39 -2 -66 -12 -39 -13 -40 -42 -29 -50 17 -57 106 -10 119 35 10 44 6 54 -24z
m197 1 c6 -11 11 -36 11 -54 0 -65 -44 -85 -82 -37 -23 29 -21 57 6 98 18 27
49 23 65 -7z m-311 -197 c-14 -36 -30 -39 -54 -12 -25 27 -17 72 14 88 23 12
26 10 39 -17 12 -24 12 -34 1 -59z m169 39 c31 -16 46 -65 31 -100 -13 -32
-14 -33 -47 -24 -26 7 -38 49 -29 100 7 36 16 40 45 24z m239 -65 c22 -47 15
-78 -24 -108 -39 -32 -60 -30 -74 8 -26 69 -1 125 55 125 24 0 34 -6 43 -25z
m-530 -96 c4 -34 -18 -60 -45 -53 -30 8 -30 48 -1 68 29 20 42 16 46 -15z
m173 1 c27 -15 26 -75 -2 -90 -29 -16 -49 4 -49 50 0 51 12 60 51 40z m-1050
-20 c12 -7 19 -21 19 -40 0 -34 0 -34 -35 -18 -24 11 -34 45 -18 61 8 9 11 9
34 -3z m1247 -72 c28 -28 -2 -113 -48 -138 -17 -9 -26 -8 -46 5 -34 22 -34 86
1 120 26 27 73 33 93 13z m-1538 -83 c17 -9 30 -19 30 -24 0 -12 -32 -38 -57
-45 -20 -7 -23 -4 -23 23 0 30 8 61 17 61 2 0 17 -7 33 -15z m1268 -34 c3 -31
2 -32 -30 -29 -28 3 -33 7 -36 32 -4 33 12 47 42 37 14 -6 22 -19 24 -40z
m-208 29 c0 -5 -7 -10 -15 -10 -8 0 -15 5 -15 10 0 6 7 10 15 10 8 0 15 -4 15
-10z m44 -110 c36 -13 36 -67 0 -109 -46 -55 -91 -37 -101 39 -9 67 33 96 101
70z m222 -25 c9 -36 -2 -57 -28 -53 -26 3 -36 41 -18 64 19 22 39 17 46 -11z
m-427 -22 c-15 -18 -34 -1 -25 22 5 14 9 15 21 5 12 -10 13 -16 4 -27z m-144
-84 c9 -14 -24 -49 -46 -49 -27 0 -33 19 -13 41 19 21 49 25 59 8z m179 -105
c-16 -65 -94 -66 -94 -1 0 53 52 88 84 56 17 -15 18 -24 10 -55z m190 40 c27
-27 -12 -74 -61 -74 -56 0 -57 49 -2 77 32 17 44 16 63 -3z m-1112 -46 c15
-22 50 -86 78 -142 46 -90 51 -107 48 -155 l-3 -55 -37 33 c-45 39 -83 114
-109 213 -19 75 -25 148 -11 148 4 0 20 -19 34 -42z m568 -29 c9 -15 9 -28 0
-50 -17 -41 -36 -55 -55 -39 -19 16 -19 43 0 80 18 35 40 38 55 9z m160 -60
c0 -9 -9 -24 -21 -35 -20 -18 -21 -18 -35 1 -19 25 -18 54 3 77 17 19 18 19
35 -4 10 -13 18 -30 18 -39z m-430 1 c0 -11 -4 -20 -10 -20 -5 0 -10 9 -10 20
0 11 5 20 10 20 6 0 10 -9 10 -20z m576 -65 c8 -21 -14 -45 -42 -45 -32 0 -38
16 -14 40 24 24 48 26 56 5z m-444 -42 c22 -20 23 -56 3 -73 -23 -19 -65 12
-65 49 0 45 27 56 62 24z m313 -135 c10 -47 37 -205 42 -250 5 -44 3 -48 -20
-59 -23 -11 -34 -7 -97 30 -38 23 -77 52 -85 65 -25 37 -30 117 -11 154 26 51
38 44 50 -28 9 -52 21 -67 40 -51 11 9 16 30 16 65 0 54 20 96 45 96 8 0 17
-10 20 -22z m-507 -74 c25 -17 28 -46 11 -123 -10 -46 -8 -53 20 -109 40 -80
54 -141 40 -181 -13 -38 -28 -39 -63 -6 -39 36 -73 118 -86 208 -10 66 -9 85
5 135 19 64 32 92 43 92 4 0 18 -7 30 -16z"/>
<path d="M9350 6698 c-53 -37 -74 -72 -74 -126 0 -156 194 -212 281 -82 64 94
-11 230 -127 230 -32 0 -57 -7 -80 -22z m80 -72 c6 -8 10 -25 8 -38 -2 -18
-10 -24 -35 -26 -28 -3 -33 1 -39 23 -11 45 37 75 66 41z"/>
<path d="M3193 10118 c-233 -198 -532 -518 -719 -768 -380 -508 -663 -1090
-820 -1687 -48 -182 -95 -406 -86 -414 9 -7 143 -31 148 -26 2 2 15 57 28 123
30 148 66 289 111 441 38 124 65 165 120 179 109 27 134 -97 63 -313 l-34
-102 41 -5 c22 -3 61 -7 86 -9 l46 -4 27 76 c14 42 32 105 41 141 16 73 33 90
85 90 79 0 121 -92 95 -211 -23 -106 -84 -161 -294 -265 l-159 -79 -1 -47 c-1
-28 3 -48 10 -48 21 0 318 138 397 185 94 56 127 88 175 168 126 209 60 457
-121 457 -36 0 -117 -33 -157 -63 -18 -14 -21 -12 -48 44 -15 32 -42 68 -59
81 -42 29 -129 36 -181 14 -38 -15 -38 -15 -31 7 21 66 127 304 205 457 72
143 234 428 255 449 3 3 30 -8 60 -24 37 -20 54 -35 51 -45 -2 -9 -89 -152
-192 -319 -207 -333 -196 -302 -123 -346 l27 -16 38 61 c63 103 56 98 95 59
62 -63 98 -74 233 -74 109 0 130 3 229 35 59 18 110 40 113 47 3 7 2 29 -1 48
l-7 35 -37 -15 c-61 -24 -193 -55 -235 -55 -96 0 -165 68 -154 149 5 37 108
227 159 293 12 16 25 10 151 -68 l138 -85 114 36 c117 36 144 57 109 82 -10 7
-153 95 -318 194 -166 100 -305 185 -310 190 -16 15 286 391 411 512 39 37 39
37 79 24 42 -15 84 -65 84 -101 -1 -15 -18 -31 -62 -56 -98 -56 -136 -122
-102 -179 28 -47 63 -56 209 -55 137 0 301 26 530 82 l110 27 6 40 c4 22 5 42
4 44 -2 2 -70 -13 -152 -32 -152 -37 -302 -67 -333 -67 -16 0 -17 5 -8 43 5
23 8 71 5 107 -7 106 -62 191 -170 262 l-38 26 123 107 c68 59 129 113 137
120 11 11 5 23 -37 74 l-51 61 -108 -92z"/>
<path d="M3438 3043 l-3 -148 -137 -44 c-76 -25 -138 -48 -138 -51 0 -3 62
-26 138 -51 l137 -44 5 -149 5 -148 84 116 c47 64 89 116 95 116 6 0 68 -18
139 -41 71 -22 131 -39 133 -36 2 2 -34 56 -81 120 l-85 117 85 117 c47 64 83
118 81 121 -3 2 -63 -15 -134 -37 -72 -23 -134 -41 -139 -41 -5 0 -47 52 -93
115 -46 63 -85 115 -87 115 -1 0 -4 -66 -5 -147z"/>
<path d="M9222 3026 c-46 -64 -88 -116 -94 -116 -5 0 -68 18 -140 41 -71 22
-131 39 -134 37 -2 -3 35 -57 82 -122 l85 -117 -86 -117 c-51 -69 -80 -118
-73 -120 7 -1 67 16 133 38 65 22 124 40 130 40 6 0 49 -52 96 -116 l84 -116
5 148 5 148 138 45 c75 25 137 48 137 51 0 3 -62 26 -137 51 l-138 44 -5 149
-5 148 -83 -116z"/>
</g>
</svg>
